<svg width="200" height="59" viewBox="0 0 200 59" fill="none" xmlns="http://www.w3.org/2000/svg">
<path d="M192.593 59H7.40741C3.33519 59 0 55.6794 0 51.625V7.375C0 3.32059 3.33519 7.56029e-07 7.40741 7.56029e-07H192.593C196.665 7.56029e-07 200 3.32059 200 7.375V51.625C200 55.6794 196.665 59 192.593 59Z" fill="white"/>
<path d="M47.4523 28.1072C47.4143 23.5698 51.1732 21.3581 51.3482 21.2593C49.2176 18.1584 45.9152 17.7327 44.751 17.7023C41.9737 17.4136 39.2876 19.3593 37.8723 19.3593C36.4341 19.3593 34.2578 17.7327 31.9066 17.7784C28.8857 17.8239 26.0627 19.5721 24.518 22.2778C21.3221 27.8032 23.7038 35.9203 26.7703 40.3893C28.2997 42.5782 30.088 45.0179 32.4316 44.9343C34.722 44.8431 35.5819 43.475 38.344 43.475C41.0833 43.475 41.8899 44.9343 44.2792 44.8811C46.737 44.8431 48.2893 42.6846 49.7655 40.4805C51.5385 37.9724 52.2461 35.5023 52.2766 35.3807C52.2157 35.3427 47.498 33.5415 47.4523 28.1072ZM42.94 14.761C44.1727 13.2182 45.0173 11.1281 44.7814 9C43.0009 9.07596 40.7637 10.2312 39.4854 11.7361C38.3516 13.0662 37.3319 15.2398 37.5983 17.2843C39.5919 17.4287 41.654 16.2735 42.94 14.761Z" fill="black"/>
<path d="M80.6436 44.6075H77.4401L75.6824 39.1048H69.5874L67.9133 44.6075H64.7935L70.8353 25.8651H74.5638L80.6436 44.6075ZM75.1574 36.7943L73.567 31.8998C73.3996 31.3981 73.08 30.2201 72.6234 28.3656H72.5702C72.3876 29.1637 72.0832 30.3417 71.6799 31.8998L70.12 36.7943H75.1574ZM96.1517 37.6836C96.1517 39.9789 95.5274 41.7954 94.2795 43.1331C93.1605 44.3187 91.7682 44.9115 90.1094 44.9115C88.3135 44.9115 87.0279 44.2731 86.2444 42.9962V50.0874H83.2385V35.5327C83.2385 34.0887 83.2007 32.6066 83.1244 31.0941H85.7719L85.9401 33.2374H85.9926C86.9976 31.6262 88.5194 30.8129 90.5581 30.8129C92.1563 30.8129 93.4878 31.4438 94.5535 32.7054C95.6184 33.9671 96.1517 35.6315 96.1517 37.6836ZM93.0924 37.7976C93.0924 36.4828 92.7954 35.3959 92.2022 34.5447C91.5549 33.6554 90.6804 33.2146 89.5843 33.2146C88.8468 33.2146 88.1691 33.4654 87.5678 33.9518C86.9672 34.4459 86.571 35.0919 86.3888 35.8823C86.3051 36.1788 86.2592 36.4903 86.2518 36.7943V39.0516C86.2518 40.0321 86.5562 40.8605 87.1576 41.5446C87.7581 42.221 88.5424 42.563 89.508 42.563C90.6418 42.563 91.5246 42.1222 92.1563 41.2558C92.7724 40.3742 93.0924 39.2264 93.0924 37.7976ZM111.72 37.6836C111.72 39.9789 111.096 41.7954 109.848 43.1331C108.729 44.3187 107.337 44.9115 105.678 44.9115C103.882 44.9115 102.596 44.2731 101.812 42.9962V50.0874H98.8065V35.5327C98.8065 34.0887 98.7688 32.6066 98.6925 31.0941H101.341L101.508 33.2374H101.561C102.566 31.6262 104.087 30.8129 106.127 30.8129C107.725 30.8129 109.057 31.4438 110.122 32.7054C111.18 33.9671 111.72 35.6315 111.72 37.6836ZM108.653 37.7976C108.653 36.4828 108.357 35.3959 107.763 34.5447C107.116 33.6554 106.241 33.2146 105.146 33.2146C104.407 33.2146 103.73 33.4654 103.121 33.9518C102.521 34.4459 102.124 35.0919 101.942 35.8823C101.85 36.2547 101.798 36.5587 101.798 36.7943V39.0516C101.798 40.0321 102.102 40.8605 102.703 41.5446C103.304 42.221 104.087 42.563 105.062 42.563C106.195 42.563 107.078 42.1222 107.71 41.2558C108.341 40.3742 108.653 39.2264 108.653 37.7976ZM129.122 39.3557C129.122 40.9518 128.567 42.2514 127.456 43.247C126.239 44.3415 124.526 44.8887 122.342 44.8887C120.326 44.8887 118.706 44.5011 117.48 43.7182L118.172 41.2178C119.489 42.0006 120.942 42.3882 122.517 42.3882C123.651 42.3882 124.534 42.1298 125.165 41.6205C125.797 41.1113 126.116 40.4273 126.116 39.5761C126.116 38.8161 125.85 38.1776 125.333 37.6532C124.815 37.1364 123.955 36.6499 122.746 36.2092C119.459 34.9855 117.815 33.1918 117.815 30.8434C117.815 29.308 118.393 28.0464 119.557 27.066C120.714 26.0855 122.251 25.5915 124.169 25.5915C125.873 25.5915 127.296 25.8879 128.43 26.4807L127.677 28.9281C126.611 28.3504 125.416 28.0692 124.069 28.0692C123.012 28.0692 122.175 28.3276 121.581 28.8444C121.079 29.308 120.828 29.8705 120.828 30.5393C120.828 31.2765 121.118 31.8922 121.696 32.371C122.198 32.8118 123.103 33.2982 124.42 33.8151C126.033 34.4687 127.22 35.2211 127.981 36.0952C128.742 36.9692 129.122 38.056 129.122 39.3557ZM139.09 33.3514H135.772V39.9105C135.772 41.5826 136.358 42.411 137.531 42.411C138.07 42.411 138.512 42.3654 138.87 42.2742L138.953 44.5543C138.36 44.7747 137.584 44.8887 136.617 44.8887C135.43 44.8887 134.502 44.5239 133.832 43.8019C133.163 43.0798 132.828 41.8637 132.828 40.1613V33.3514H130.857V31.1017H132.828V28.6241L135.781 27.7348V31.1017H139.098L139.09 33.3514ZM154.012 37.7444C154.012 39.8193 153.419 41.5294 152.231 42.8594C150.991 44.235 149.34 44.9191 147.278 44.9191C145.292 44.9191 143.709 44.2579 142.529 42.9506C141.35 41.6358 140.765 39.9713 140.765 37.9724C140.765 35.8747 141.373 34.1646 142.591 32.827C143.808 31.4893 145.444 30.8281 147.506 30.8281C149.492 30.8281 151.09 31.4893 152.292 32.8042C153.433 34.0734 154.012 35.7227 154.012 37.7444ZM150.893 37.8128C150.893 36.574 150.626 35.5099 150.085 34.6283C149.454 33.5566 148.556 33.017 147.385 33.017C146.182 33.017 145.254 33.5566 144.63 34.6283C144.09 35.5175 143.823 36.5968 143.823 37.8736C143.823 39.1125 144.09 40.1765 144.63 41.0658C145.277 42.1374 146.19 42.677 147.362 42.677C148.511 42.677 149.408 42.1298 150.063 41.043C150.619 40.1233 150.893 39.0517 150.893 37.8128ZM163.79 33.739C163.478 33.6858 163.159 33.6554 162.839 33.6554C161.781 33.6554 160.967 34.0507 160.389 34.8487C159.887 35.5555 159.636 36.4448 159.636 37.5164V44.6075H156.63V35.3503C156.63 33.9291 156.607 32.5154 156.546 31.0941H159.164L159.27 33.6782H159.353C159.673 32.789 160.168 32.0746 160.861 31.535C161.484 31.0637 162.253 30.8129 163.036 30.8129C163.318 30.8129 163.561 30.8357 163.79 30.8661V33.739ZM177.236 37.2124C177.243 37.6684 177.205 38.1244 177.129 38.5729H168.105C168.135 39.9105 168.576 40.9289 169.413 41.6358C170.174 42.2666 171.156 42.5782 172.366 42.5782C173.705 42.5782 174.922 42.3654 176.018 41.9398L176.49 44.0222C175.211 44.5771 173.697 44.8583 171.955 44.8583C169.855 44.8583 168.211 44.2427 167.009 43.0115C165.814 41.7802 165.213 40.1233 165.213 38.0484C165.213 36.0115 165.768 34.3167 166.887 32.9638C168.051 31.5197 169.634 30.7977 171.62 30.7977C173.568 30.7977 175.044 31.5197 176.049 32.9638C176.832 34.1115 177.236 35.5251 177.236 37.2124ZM174.367 36.4371C174.39 35.548 174.192 34.7803 173.781 34.1266C173.263 33.2906 172.457 32.8726 171.384 32.8726C170.403 32.8726 169.604 33.283 168.987 34.0962C168.485 34.7423 168.188 35.5251 168.097 36.4296L174.367 36.4371Z" fill="black"/>
<path d="M68.7199 19.2453C67.883 19.2453 67.1601 19.2073 66.5589 19.1388V10.0717C67.4036 9.94245 68.2558 9.87403 69.1081 9.88165C72.555 9.88165 74.1454 11.5765 74.1454 14.3354C74.1377 17.5199 72.2659 19.2453 68.7199 19.2453ZM69.2297 11.0445C68.7656 11.0445 68.37 11.0749 68.0428 11.1433V18.0292C68.2178 18.0596 68.5602 18.0672 69.0396 18.0672C71.2995 18.0672 72.5855 16.7828 72.5855 14.3811C72.5778 12.2302 71.4137 11.0445 69.2297 11.0445ZM79.0914 19.3136C77.151 19.3136 75.8878 17.862 75.8878 15.8935C75.8878 13.8414 77.1738 12.3822 79.1979 12.3822C81.1154 12.3822 82.4016 13.7654 82.4016 15.7871C82.4016 17.862 81.0774 19.3136 79.0914 19.3136ZM79.1446 13.4614C78.0793 13.4614 77.3945 14.457 77.3945 15.8555C77.3945 17.2235 78.0946 18.2192 79.1294 18.2192C80.1719 18.2192 80.8644 17.1551 80.8644 15.8251C80.8719 14.4723 80.1871 13.4614 79.1446 13.4614ZM93.4804 12.519L91.4032 19.1616H90.0487L89.1889 16.2811C88.9756 15.5743 88.7934 14.8599 88.6564 14.1378H88.6261C88.5194 14.8599 88.3135 15.5895 88.0928 16.2811L87.1797 19.1616H85.8104L83.8546 12.519H85.3764L86.1296 15.6731C86.3051 16.4255 86.4569 17.1323 86.5792 17.8088H86.6095C86.7162 17.2463 86.8983 16.5547 87.1575 15.6883L88.101 12.519H89.3029L90.2086 15.6199C90.4293 16.3723 90.6041 17.1096 90.7411 17.8088H90.7788C90.8781 17.1247 91.0225 16.4027 91.2284 15.6199L92.0349 12.519H93.4804ZM101.143 19.1616H99.6671V15.3463C99.6671 14.1682 99.2175 13.583 98.3274 13.583C97.4528 13.583 96.8515 14.3354 96.8515 15.2094V19.1616H95.3756V14.419C95.3756 13.8338 95.36 13.203 95.3222 12.519H96.6234L96.6915 13.545H96.7292C97.1255 12.8382 97.932 12.3822 98.8377 12.3822C100.23 12.3822 101.15 13.4462 101.15 15.1867L101.143 19.1616ZM105.214 19.1616H103.738V9.47119H105.214V19.1616ZM110.609 19.3136C108.669 19.3136 107.405 17.862 107.405 15.8935C107.405 13.8414 108.692 12.3822 110.716 12.3822C112.633 12.3822 113.919 13.7654 113.919 15.7871C113.919 17.862 112.588 19.3136 110.609 19.3136ZM110.662 13.4614C109.597 13.4614 108.912 14.457 108.912 15.8555C108.912 17.2235 109.612 18.2192 110.647 18.2192C111.689 18.2192 112.382 17.1551 112.382 15.8251C112.382 14.4723 111.705 13.4614 110.662 13.4614ZM119.747 19.1616L119.641 18.394H119.603C119.154 19.0096 118.492 19.306 117.655 19.306C116.46 19.306 115.616 18.47 115.616 17.3528C115.616 15.7111 117.038 14.8675 119.504 14.8675V14.7459C119.504 13.8718 119.04 13.431 118.127 13.431C117.472 13.431 116.894 13.5982 116.392 13.925L116.095 12.9522C116.712 12.5721 117.48 12.3746 118.378 12.3746C120.113 12.3746 120.995 13.2866 120.995 15.1182V17.5656C120.995 18.2344 121.026 18.7588 121.095 19.154L119.747 19.1616ZM119.542 15.8555C117.898 15.8555 117.077 16.2507 117.077 17.1931C117.077 17.8924 117.503 18.2344 118.089 18.2344C118.843 18.2344 119.542 17.6643 119.542 16.8815V15.8555ZM128.156 19.1616L128.088 18.0976H128.049C127.623 18.9032 126.908 19.3136 125.911 19.3136C124.306 19.3136 123.118 17.9076 123.118 15.9239C123.118 13.849 124.352 12.3822 126.033 12.3822C126.924 12.3822 127.554 12.6786 127.905 13.2866H127.935V9.47119H129.411V17.3679C129.411 18.0064 129.427 18.6144 129.464 19.154H128.156V19.1616ZM127.942 15.2551C127.942 14.3278 127.326 13.5298 126.383 13.5298C125.287 13.5298 124.617 14.5027 124.617 15.8631C124.617 17.2008 125.31 18.1204 126.353 18.1204C127.28 18.1204 127.942 17.3148 127.942 16.3571V15.2551ZM138.801 19.3136C136.861 19.3136 135.598 17.862 135.598 15.8935C135.598 13.8414 136.883 12.3822 138.908 12.3822C140.825 12.3822 142.111 13.7654 142.111 15.7871C142.111 17.862 140.788 19.3136 138.801 19.3136ZM138.855 13.4614C137.789 13.4614 137.104 14.457 137.104 15.8555C137.104 17.2235 137.805 18.2192 138.839 18.2192C139.882 18.2192 140.574 17.1551 140.574 15.8251C140.582 14.4723 139.897 13.4614 138.855 13.4614ZM150.063 19.1616H148.586V15.3463C148.586 14.1682 148.138 13.583 147.248 13.583C146.372 13.583 145.772 14.3354 145.772 15.2094V19.1616H144.295V14.419C144.295 13.8338 144.28 13.203 144.242 12.519H145.543L145.612 13.545H145.649C146.046 12.8382 146.852 12.3822 147.757 12.3822C149.15 12.3822 150.071 13.4462 150.071 15.1867V19.1616H150.063ZM160.001 13.6286H158.372V16.8511C158.372 17.6719 158.654 18.0824 159.232 18.0824C159.49 18.0824 159.711 18.052 159.887 18.014L159.924 19.1312C159.636 19.2377 159.255 19.2985 158.776 19.2985C157.611 19.2985 156.911 18.66 156.911 16.9727V13.621H155.937V12.5113H156.911V11.2953L158.365 10.8545V12.5113H159.993L160.001 13.6286ZM167.831 19.1616H166.354V15.3767C166.354 14.191 165.905 13.5906 165.015 13.5906C164.246 13.5906 163.539 14.1074 163.539 15.1639V19.1692H162.062V9.47119H163.539V13.4614H163.57C164.034 12.7394 164.711 12.3822 165.571 12.3822C166.978 12.3822 167.838 13.4766 167.838 15.2094L167.831 19.1616ZM175.843 16.1975H171.407C171.437 17.4516 172.267 18.166 173.5 18.166C174.154 18.166 174.762 18.0596 175.295 17.8544L175.524 18.8804C174.892 19.154 174.154 19.2908 173.294 19.2908C171.217 19.2908 169.984 17.976 169.984 15.9467C169.984 13.9098 171.247 12.3822 173.126 12.3822C174.823 12.3822 175.889 13.6362 175.889 15.5363C175.904 15.7491 175.889 15.9771 175.843 16.1975ZM174.488 15.1411C174.488 14.115 173.971 13.393 173.028 13.393C172.176 13.393 171.506 14.1302 171.414 15.1411H174.488Z" fill="black"/>
</svg>
