<svg width="225" height="45" viewBox="0 0 225 45" fill="none" xmlns="http://www.w3.org/2000/svg">
<path d="M19.744 34.892V37H3.526V12.86H19.438V14.968H5.906V23.672H17.704V25.678H5.906V34.892H19.744ZM22.2411 31.9C22.2411 30.812 22.5585 29.8713 23.1931 29.078C23.8278 28.262 24.7005 27.6273 25.8111 27.174C26.9445 26.7207 28.2478 26.494 29.7211 26.494C30.5825 26.494 31.4778 26.5733 32.4071 26.732C33.3365 26.868 34.1638 27.0607 34.8891 27.31V25.814C34.8891 24.318 34.4471 23.128 33.5631 22.244C32.6791 21.36 31.4551 20.918 29.8911 20.918C28.9618 20.918 28.0325 21.0993 27.1031 21.462C26.1738 21.802 25.2105 22.312 24.2131 22.992L23.3291 21.36C24.4851 20.5667 25.6185 19.9773 26.7291 19.592C27.8398 19.184 28.9731 18.98 30.1291 18.98C32.3051 18.98 34.0278 19.6033 35.2971 20.85C36.5665 22.0967 37.2011 23.8193 37.2011 26.018V34.212C37.2011 34.824 37.4845 35.1413 38.0511 35.164V37C37.5525 37.068 37.2011 37.0907 36.9971 37.068C36.4305 37.0453 35.9998 36.864 35.7051 36.524C35.4105 36.184 35.2518 35.8213 35.2291 35.436L35.1951 34.144C34.4018 35.164 33.3705 35.9573 32.1011 36.524C30.8318 37.068 29.5398 37.34 28.2251 37.34C27.0691 37.34 26.0378 37.102 25.1311 36.626C24.2245 36.1273 23.5105 35.47 22.9891 34.654C22.4905 33.8153 22.2411 32.8973 22.2411 31.9ZM34.1071 33.26C34.6285 32.648 34.8891 32.0813 34.8891 31.56V28.976C33.3251 28.364 31.6931 28.058 29.9931 28.058C28.3385 28.058 27.0011 28.3867 25.9811 29.044C24.9611 29.7013 24.4511 30.5967 24.4511 31.73C24.4511 32.7047 24.8251 33.5887 25.5731 34.382C26.3438 35.1753 27.4091 35.572 28.7691 35.572C29.8798 35.572 30.9111 35.3567 31.8631 34.926C32.8378 34.4953 33.5858 33.94 34.1071 33.26ZM48.0105 37.34C46.5598 37.34 45.2112 37.102 43.9645 36.626C42.7405 36.1273 41.6638 35.402 40.7345 34.45L41.6865 32.818C42.6838 33.7473 43.6812 34.4273 44.6785 34.858C45.6985 35.266 46.7752 35.47 47.9085 35.47C49.2685 35.47 50.3792 35.198 51.2405 34.654C52.1245 34.0873 52.5665 33.2827 52.5665 32.24C52.5665 31.5373 52.3512 31.0047 51.9205 30.642C51.5125 30.2567 50.9118 29.9507 50.1185 29.724C49.3478 29.4973 48.4185 29.2367 47.3305 28.942C46.1065 28.602 45.0752 28.2507 44.2365 27.888C43.4205 27.5027 42.7972 27.0267 42.3665 26.46C41.9585 25.8707 41.7545 25.1113 41.7545 24.182C41.7545 23.0487 42.0378 22.0967 42.6045 21.326C43.1938 20.5553 43.9872 19.9773 44.9845 19.592C46.0045 19.184 47.1378 18.98 48.3845 18.98C49.7445 18.98 50.9458 19.1953 51.9885 19.626C53.0312 20.0567 53.8812 20.6573 54.5385 21.428L53.4165 22.992C52.8045 22.2667 52.0452 21.734 51.1385 21.394C50.2545 21.0313 49.2912 20.85 48.2485 20.85C47.5232 20.85 46.8318 20.952 46.1745 21.156C45.5172 21.3373 44.9732 21.6547 44.5425 22.108C44.1345 22.5387 43.9305 23.1393 43.9305 23.91C43.9305 24.862 44.2818 25.5193 44.9845 25.882C45.6872 26.2447 46.7525 26.63 48.1805 27.038C49.5178 27.4007 50.6852 27.7633 51.6825 28.126C52.6798 28.4887 53.4505 28.976 53.9945 29.588C54.5385 30.1773 54.8105 31.0047 54.8105 32.07C54.8105 33.7247 54.1872 35.0167 52.9405 35.946C51.6938 36.8753 50.0505 37.34 48.0105 37.34ZM59.2868 42.44C59.6041 42.4627 59.9101 42.474 60.2048 42.474C60.4995 42.4967 60.7148 42.4853 60.8508 42.44C61.1228 42.4173 61.3721 42.2587 61.5988 41.964C61.8481 41.692 62.1428 41.1707 62.4828 40.4C62.8455 39.652 63.3328 38.5187 63.9448 37L56.2268 19.286H58.6748L65.1688 34.62L71.1528 19.286H73.4648L64.2848 42.134C64.0355 42.7913 63.6161 43.358 63.0268 43.834C62.4375 44.31 61.6555 44.5593 60.6808 44.582C60.4768 44.6047 60.2615 44.6047 60.0348 44.582C59.8081 44.582 59.5588 44.5593 59.2868 44.514V42.44Z" fill="white"/>
<path d="M77.526 37V12.86H87.726C88.7687 12.86 89.7207 13.0753 90.582 13.506C91.466 13.9367 92.2253 14.526 92.86 15.274C93.4947 15.9993 93.982 16.8153 94.322 17.722C94.6847 18.606 94.866 19.5127 94.866 20.442C94.866 21.6207 94.6393 22.72 94.186 23.74C93.7553 24.76 93.132 25.6213 92.316 26.324C91.5 27.0267 90.5593 27.48 89.494 27.684L95.41 37H92.724L87.046 28.092H79.906V37H77.526ZM79.906 25.984H87.794C88.746 25.984 89.5733 25.7233 90.276 25.202C90.9787 24.658 91.5227 23.9667 91.908 23.128C92.2933 22.2893 92.486 21.394 92.486 20.442C92.486 19.4673 92.2593 18.572 91.806 17.756C91.3753 16.9173 90.786 16.2487 90.038 15.75C89.29 15.2287 88.474 14.968 87.59 14.968H79.906V25.984ZM106.382 37.34C104.682 37.34 103.163 36.9207 101.826 36.082C100.488 35.2433 99.4343 34.1213 98.6636 32.716C97.893 31.3107 97.5076 29.7693 97.5076 28.092C97.5076 26.4373 97.8816 24.9187 98.6296 23.536C99.4003 22.1533 100.454 21.054 101.792 20.238C103.129 19.3993 104.648 18.98 106.348 18.98C108.093 18.98 109.623 19.3993 110.938 20.238C112.252 21.0767 113.272 22.1873 113.998 23.57C114.746 24.93 115.12 26.426 115.12 28.058C115.12 28.4207 115.108 28.7267 115.086 28.976H99.9216C100.035 30.2453 100.398 31.3787 101.01 32.376C101.622 33.3507 102.404 34.1327 103.356 34.722C104.308 35.2887 105.35 35.572 106.484 35.572C107.64 35.572 108.728 35.2773 109.748 34.688C110.768 34.0987 111.493 33.328 111.924 32.376L113.93 32.92C113.567 33.7813 113 34.552 112.23 35.232C111.482 35.8893 110.609 36.4107 109.612 36.796C108.614 37.1587 107.538 37.34 106.382 37.34ZM99.8536 27.31H112.944C112.853 26.0407 112.502 24.9187 111.89 23.944C111.278 22.9467 110.496 22.176 109.544 21.632C108.592 21.0653 107.538 20.782 106.382 20.782C105.226 20.782 104.172 21.0653 103.22 21.632C102.268 22.176 101.486 22.9467 100.874 23.944C100.284 24.9187 99.9443 26.0407 99.8536 27.31ZM140.526 19.286H142.804L135.188 37H133.182L129.476 28.194L125.804 37H123.798L116.182 19.286H118.426L124.886 34.62L128.15 26.63L125.158 19.32H127.232L129.476 25.066L131.754 19.32H133.794L130.836 26.63L134.1 34.62L140.526 19.286ZM144.02 31.9C144.02 30.812 144.338 29.8713 144.972 29.078C145.607 28.262 146.48 27.6273 147.59 27.174C148.724 26.7207 150.027 26.494 151.5 26.494C152.362 26.494 153.257 26.5733 154.186 26.732C155.116 26.868 155.943 27.0607 156.668 27.31V25.814C156.668 24.318 156.226 23.128 155.342 22.244C154.458 21.36 153.234 20.918 151.67 20.918C150.741 20.918 149.812 21.0993 148.882 21.462C147.953 21.802 146.99 22.312 145.992 22.992L145.108 21.36C146.264 20.5667 147.398 19.9773 148.508 19.592C149.619 19.184 150.752 18.98 151.908 18.98C154.084 18.98 155.807 19.6033 157.076 20.85C158.346 22.0967 158.98 23.8193 158.98 26.018V34.212C158.98 34.824 159.264 35.1413 159.83 35.164V37C159.332 37.068 158.98 37.0907 158.776 37.068C158.21 37.0453 157.779 36.864 157.484 36.524C157.19 36.184 157.031 35.8213 157.008 35.436L156.974 34.144C156.181 35.164 155.15 35.9573 153.88 36.524C152.611 37.068 151.319 37.34 150.004 37.34C148.848 37.34 147.817 37.102 146.91 36.626C146.004 36.1273 145.29 35.47 144.768 34.654C144.27 33.8153 144.02 32.8973 144.02 31.9ZM155.886 33.26C156.408 32.648 156.668 32.0813 156.668 31.56V28.976C155.104 28.364 153.472 28.058 151.772 28.058C150.118 28.058 148.78 28.3867 147.76 29.044C146.74 29.7013 146.23 30.5967 146.23 31.73C146.23 32.7047 146.604 33.5887 147.352 34.382C148.123 35.1753 149.188 35.572 150.548 35.572C151.659 35.572 152.69 35.3567 153.642 34.926C154.617 34.4953 155.365 33.94 155.886 33.26ZM172.816 21.326C171.274 21.3713 169.914 21.802 168.736 22.618C167.58 23.434 166.764 24.556 166.288 25.984V37H163.976V19.286H166.152V23.536C166.764 22.2893 167.568 21.2807 168.566 20.51C169.586 19.7393 170.662 19.3087 171.796 19.218C172.022 19.1953 172.215 19.184 172.374 19.184C172.532 19.184 172.68 19.1953 172.816 19.218V21.326ZM174.241 28.194C174.241 26.5167 174.581 24.9867 175.261 23.604C175.964 22.1987 176.927 21.0767 178.151 20.238C179.375 19.3993 180.769 18.98 182.333 18.98C183.806 18.98 185.121 19.3767 186.277 20.17C187.456 20.9407 188.374 21.8813 189.031 22.992V12.18H191.343V34.212C191.343 34.824 191.615 35.1413 192.159 35.164V37C191.706 37.068 191.354 37.0907 191.105 37.068C190.606 37.0453 190.176 36.864 189.813 36.524C189.473 36.1613 189.303 35.7533 189.303 35.3V33.566C188.6 34.722 187.648 35.64 186.447 36.32C185.246 37 183.999 37.34 182.707 37.34C181.483 37.34 180.35 37.0907 179.307 36.592C178.264 36.0933 177.358 35.4133 176.587 34.552C175.839 33.6907 175.261 32.716 174.853 31.628C174.445 30.5173 174.241 29.3727 174.241 28.194ZM189.031 30.914V25.44C188.736 24.624 188.26 23.8873 187.603 23.23C186.946 22.55 186.198 22.0173 185.359 21.632C184.543 21.224 183.727 21.02 182.911 21.02C181.642 21.02 180.531 21.3713 179.579 22.074C178.65 22.754 177.924 23.6493 177.403 24.76C176.882 25.848 176.621 26.9927 176.621 28.194C176.621 29.4633 176.904 30.642 177.471 31.73C178.06 32.818 178.854 33.6907 179.851 34.348C180.848 34.9827 181.97 35.3 183.217 35.3C183.988 35.3 184.792 35.1073 185.631 34.722C186.492 34.314 187.24 33.7813 187.875 33.124C188.532 32.4667 188.918 31.73 189.031 30.914ZM202.395 37.34C200.945 37.34 199.596 37.102 198.349 36.626C197.125 36.1273 196.049 35.402 195.119 34.45L196.071 32.818C197.069 33.7473 198.066 34.4273 199.063 34.858C200.083 35.266 201.16 35.47 202.293 35.47C203.653 35.47 204.764 35.198 205.625 34.654C206.509 34.0873 206.951 33.2827 206.951 32.24C206.951 31.5373 206.736 31.0047 206.305 30.642C205.897 30.2567 205.297 29.9507 204.503 29.724C203.733 29.4973 202.803 29.2367 201.715 28.942C200.491 28.602 199.46 28.2507 198.621 27.888C197.805 27.5027 197.182 27.0267 196.751 26.46C196.343 25.8707 196.139 25.1113 196.139 24.182C196.139 23.0487 196.423 22.0967 196.989 21.326C197.579 20.5553 198.372 19.9773 199.369 19.592C200.389 19.184 201.523 18.98 202.769 18.98C204.129 18.98 205.331 19.1953 206.373 19.626C207.416 20.0567 208.266 20.6573 208.923 21.428L207.801 22.992C207.189 22.2667 206.43 21.734 205.523 21.394C204.639 21.0313 203.676 20.85 202.633 20.85C201.908 20.85 201.217 20.952 200.559 21.156C199.902 21.3373 199.358 21.6547 198.927 22.108C198.519 22.5387 198.315 23.1393 198.315 23.91C198.315 24.862 198.667 25.5193 199.369 25.882C200.072 26.2447 201.137 26.63 202.565 27.038C203.903 27.4007 205.07 27.7633 206.067 28.126C207.065 28.4887 207.835 28.976 208.379 29.588C208.923 30.1773 209.195 31.0047 209.195 32.07C209.195 33.7247 208.572 35.0167 207.325 35.946C206.079 36.8753 204.435 37.34 202.395 37.34Z" fill="#ECB602"/>
<path d="M214.5 1.66675C213.406 1.66675 212.322 1.8823 211.311 2.30109C210.3 2.71987 209.381 3.3337 208.607 4.10752C207.045 5.67033 206.167 7.78994 206.167 10.0001C206.167 12.2102 207.045 14.3298 208.607 15.8926C209.381 16.6665 210.3 17.2803 211.311 17.6991C212.322 18.1179 213.406 18.3334 214.5 18.3334C216.71 18.3334 218.83 17.4554 220.393 15.8926C221.955 14.3298 222.833 12.2102 222.833 10.0001C222.833 8.90573 222.618 7.8221 222.199 6.81105C221.78 5.80001 221.166 4.88135 220.393 4.10752C219.619 3.3337 218.7 2.71987 217.689 2.30109C216.678 1.8823 215.594 1.66675 214.5 1.66675ZM214.5 16.6667C210.825 16.6667 207.833 13.6751 207.833 10.0001C207.833 6.32508 210.825 3.33341 214.5 3.33341C218.175 3.33341 221.167 6.32508 221.167 10.0001C221.167 13.6751 218.175 16.6667 214.5 16.6667ZM214.708 11.0584H213.508V13.7501H212V6.42508H214.717C215.575 6.42508 216.242 6.61675 216.717 7.00008C217.183 7.39175 217.417 7.91675 217.417 8.63341C217.417 9.13341 217.308 9.55008 217.092 9.88342C216.875 10.2167 216.55 10.4834 216.108 10.6751L217.692 13.6667V13.7501H216.075L214.708 11.0584ZM213.508 9.84175H214.725C215.1 9.84175 215.392 9.74175 215.6 9.55008C215.808 9.35842 215.908 9.09175 215.908 8.75008C215.908 8.40841 215.817 8.14175 215.617 7.94175C215.425 7.74175 215.125 7.65008 214.717 7.65008H213.508V9.84175Z" fill="white"/>
</svg>
