<svg width="200" height="59" viewBox="0 0 200 59" fill="none" xmlns="http://www.w3.org/2000/svg">
<path d="M192.593 59H7.40741C3.33519 59 0 55.6794 0 51.625V7.375C0 3.32059 3.33519 7.56029e-07 7.40741 7.56029e-07H192.593C196.665 7.56029e-07 200 3.32059 200 7.375V51.625C200 55.6794 196.665 59 192.593 59Z" fill="white"/>
<path d="M71.8323 15.7983C71.8323 16.9273 71.5498 17.9152 70.8433 18.6208C69.9955 19.4676 69.0065 19.891 67.7349 19.891C66.4632 19.891 65.4741 19.4676 64.6264 18.6208C63.7787 17.774 63.3548 16.7862 63.3548 15.516C63.3548 14.2459 63.7787 13.2581 64.6264 12.4113C65.4741 11.5645 66.4632 11.1411 67.7349 11.1411C68.3 11.1411 68.8652 11.2822 69.4303 11.5645C69.9955 11.8467 70.4194 12.129 70.7019 12.5524L69.9955 13.258C69.4303 12.5524 68.7239 12.2701 67.7349 12.2701C66.887 12.2701 66.0393 12.5524 65.4741 13.258C64.7677 13.8225 64.4851 14.6693 64.4851 15.6572C64.4851 16.6451 64.7677 17.4918 65.4741 18.0563C66.1806 18.6208 66.887 19.0442 67.7349 19.0442C68.7239 19.0442 69.4303 18.7619 70.1368 18.0563C70.5607 17.6329 70.8433 17.0684 70.8433 16.3628H67.7349V15.3749H71.8323C71.8323 15.3749 71.8323 15.516 71.8323 15.7983Z" fill="black" stroke="black" stroke-width="0.2" stroke-miterlimit="10"/>
<path d="M78.3324 12.2701H74.5175V14.9515H78.0498V15.9395H74.5175V18.6208H78.3324V19.6087H73.3871V11.1411H78.3324V12.2701Z" fill="black" stroke="black" stroke-width="0.2" stroke-miterlimit="10"/>
<path d="M82.9952 19.6087H81.8645V12.129H79.4625V11.1411H85.3965V12.129H82.9952V19.6087Z" fill="black" stroke="black" stroke-width="0.2" stroke-miterlimit="10"/>
<path d="M89.4945 19.6087V11.1411H90.6242V19.6087H89.4945Z" fill="black" stroke="black" stroke-width="0.2" stroke-miterlimit="10"/>
<path d="M95.4285 19.6087H94.2988V12.129H91.8966V11.1411H97.6895V12.129H95.2874V19.6087H95.4285Z" fill="black" stroke="black" stroke-width="0.2" stroke-miterlimit="10"/>
<path d="M108.851 18.6208C108.004 19.4676 107.014 19.891 105.743 19.891C104.471 19.891 103.482 19.4676 102.634 18.6208C101.787 17.774 101.362 16.7862 101.362 15.516C101.362 14.2459 101.787 13.2581 102.634 12.4113C103.482 11.5645 104.471 11.1411 105.743 11.1411C107.014 11.1411 108.004 11.5645 108.851 12.4113C109.699 13.2581 110.123 14.2459 110.123 15.516C110.123 16.6451 109.699 17.774 108.851 18.6208ZM103.482 17.9152C104.048 18.4797 104.895 18.9031 105.743 18.9031C106.591 18.9031 107.438 18.6208 108.004 17.9152C108.569 17.3507 108.992 16.504 108.992 15.516C108.992 14.5281 108.71 13.6814 108.004 13.1169C107.438 12.5524 106.591 12.129 105.743 12.129C104.895 12.129 104.048 12.4113 103.482 13.1169C102.917 13.6814 102.493 14.5281 102.493 15.516C102.493 16.3628 102.776 17.2096 103.482 17.9152Z" fill="black" stroke="black" stroke-width="0.2" stroke-miterlimit="10"/>
<path d="M111.677 19.6087V11.1411H112.949L117.046 17.774V16.0806V11.1411H118.177V19.6087H117.046L112.666 12.6936V14.387V19.6087H111.677Z" fill="black" stroke="black" stroke-width="0.2" stroke-miterlimit="10"/>
<path d="M101.079 32.0278C97.6887 32.0278 95.0043 34.5681 95.0043 38.0963C95.0043 41.4833 97.6887 44.1646 101.079 44.1646C104.47 44.1646 107.155 41.6244 107.155 38.0963C107.155 34.5681 104.47 32.0278 101.079 32.0278ZM101.079 41.6244C99.2426 41.6244 97.6887 40.072 97.6887 37.9551C97.6887 35.8382 99.2426 34.2858 101.079 34.2858C102.916 34.2858 104.47 35.6971 104.47 37.9551C104.47 40.2131 102.916 41.6244 101.079 41.6244ZM87.939 32.0278C84.5482 32.0278 81.8638 34.5681 81.8638 38.0963C81.8638 41.4833 84.5482 44.1646 87.939 44.1646C91.3305 44.1646 94.0149 41.6244 94.0149 38.0963C94.0149 34.5681 91.3305 32.0278 87.939 32.0278ZM87.939 41.6244C86.1029 41.6244 84.5482 40.072 84.5482 37.9551C84.5482 35.8382 86.1029 34.2858 87.939 34.2858C89.7759 34.2858 91.3305 35.6971 91.3305 37.9551C91.3305 40.2131 89.7759 41.6244 87.939 41.6244ZM72.2559 33.8624V36.4027H78.3314C78.1902 37.814 77.625 38.943 76.9185 39.6486C76.0708 40.4953 74.6578 41.4833 72.2559 41.4833C68.441 41.4833 65.6151 38.5196 65.6151 34.7092C65.6151 30.8988 68.5823 27.9351 72.2559 27.9351C74.234 27.9351 75.7882 28.7819 76.9185 29.7698L78.7553 27.9351C77.2011 26.5239 75.223 25.3949 72.3972 25.3949C67.3106 25.3949 62.9306 29.6287 62.9306 34.7092C62.9306 39.7897 67.3106 44.0235 72.3972 44.0235C75.223 44.0235 77.2011 43.1768 78.8966 41.3422C80.5921 39.6486 81.1572 37.2494 81.1572 35.4149C81.1572 34.8504 81.1572 34.2858 81.016 33.8624H72.2559ZM136.403 35.8382C135.838 34.4269 134.424 32.0278 131.316 32.0278C128.208 32.0278 125.665 34.4269 125.665 38.0963C125.665 41.4833 128.208 44.1646 131.599 44.1646C134.283 44.1646 135.979 42.4712 136.544 41.4833L134.566 40.072C133.86 41.0599 133.011 41.7655 131.599 41.7655C130.186 41.7655 129.338 41.201 128.631 39.9309L136.685 36.5438L136.403 35.8382ZM128.208 37.814C128.208 35.556 130.045 34.2858 131.316 34.2858C132.305 34.2858 133.294 34.8504 133.577 35.556L128.208 37.814ZM121.567 43.6001H124.251V25.9594H121.567V43.6001ZM117.328 33.2979C116.621 32.5923 115.492 31.8867 114.078 31.8867C111.111 31.8867 108.285 34.5681 108.285 37.9551C108.285 41.3422 110.97 43.8824 114.078 43.8824C115.492 43.8824 116.621 43.1768 117.187 42.4712H117.328V43.3179C117.328 45.5759 116.057 46.846 114.078 46.846C112.524 46.846 111.394 45.7171 111.111 44.7292L108.85 45.7171C109.557 47.2694 111.253 49.2452 114.22 49.2452C117.328 49.2452 119.872 47.4105 119.872 43.0357V32.3101H117.328V33.2979ZM114.22 41.6244C112.383 41.6244 110.828 40.072 110.828 37.9551C110.828 35.8382 112.383 34.2858 114.22 34.2858C116.057 34.2858 117.47 35.8382 117.47 37.9551C117.47 40.072 116.057 41.6244 114.22 41.6244ZM148.695 25.9594H142.337V43.6001H145.021V36.9672H148.695C151.662 36.9672 154.488 34.8504 154.488 31.4633C154.488 28.0763 151.662 25.9594 148.695 25.9594ZM148.836 34.5681H145.021V28.4997H148.836C150.814 28.4997 151.945 30.1932 151.945 31.4633C151.804 32.8746 150.673 34.5681 148.836 34.5681ZM165.085 32.0278C163.106 32.0278 161.128 32.8746 160.422 34.7092L162.824 35.6971C163.389 34.7092 164.237 34.4269 165.226 34.4269C166.639 34.4269 167.911 35.2738 168.052 36.685V36.8261C167.629 36.5438 166.498 36.1205 165.367 36.1205C162.824 36.1205 160.281 37.5317 160.281 40.072C160.281 42.4712 162.4 44.0235 164.661 44.0235C166.498 44.0235 167.345 43.1768 168.052 42.3301H168.193V43.7413H170.736V36.9672C170.454 33.7213 168.052 32.0278 165.085 32.0278ZM164.802 41.6244C163.955 41.6244 162.683 41.201 162.683 40.072C162.683 38.6608 164.237 38.2374 165.509 38.2374C166.639 38.2374 167.204 38.5197 167.911 38.8019C167.629 40.4954 166.215 41.6244 164.802 41.6244ZM179.638 32.3101L176.671 39.9309H176.53L173.421 32.3101H170.595L175.258 43.0357L172.573 48.963H175.258L182.464 32.3101H179.638ZM155.901 43.6001H158.585V25.9594H155.901V43.6001Z" fill="black"/>
<path d="M18.8477 47.1283C18.2825 46.8461 18 46.1405 18 45.4349C18 45.2937 18 45.0115 18 44.8703C18 34.427 18 23.9836 18 13.6814C18 13.1169 18.1413 12.6936 18.2825 12.129C18.4239 11.8467 18.7065 11.5645 18.9891 11.2823C25.0646 17.3507 30.9989 23.4191 36.9331 29.4876C30.8576 35.1326 24.9233 41.0599 18.8477 47.1283Z" fill="black"/>
<path d="M42.8671 23.278C41.1716 24.9715 39.3348 26.665 37.6393 28.4996C31.9876 22.7135 26.1946 16.9273 20.5429 11.1411C20.5429 11.1411 20.5429 11 20.6842 11C28.0315 15.0926 35.3786 19.1853 42.8671 23.278Z" fill="black"/>
<path d="M20.5429 47.1283C26.1946 41.4833 31.9876 35.8383 37.6393 30.1932C39.1935 31.7456 40.8891 33.298 42.7259 34.9915C35.3786 39.0842 28.0315 43.1768 20.6842 47.1283H20.5429Z" fill="black"/>
<path d="M43.7154 34.4269C41.8786 32.7335 40.1832 31.0399 38.3464 29.3465C40.1832 27.5118 42.02 25.6772 43.8567 23.8425C44.4219 24.1247 44.9871 24.407 45.5523 24.8303C46.9652 25.6772 48.5194 26.3828 49.9323 27.2295C50.3562 27.3706 50.6388 27.6529 50.9213 28.0762C51.4865 28.7819 51.4865 29.4876 50.9213 30.1932C50.6388 30.4754 50.3562 30.7577 49.9323 30.8988C47.9542 32.169 45.8349 33.298 43.7154 34.4269Z" fill="black"/>
<path d="M17.7006 10.5856C17.2568 11.0392 17 11.7454 17 12.6599V45.2795C17 46.194 17.2568 46.9002 17.7006 47.3537L17.8101 47.4533L36.532 29.1817V28.7503L17.8101 10.4787L17.7006 10.5856Z" fill="url(#paint0_linear_104_3)"/>
<path d="M42.7656 35.2753L36.532 29.1817V28.7503L42.7732 22.6567L42.9129 22.736L50.3042 26.842C52.4136 28.0072 52.4136 29.9247 50.3042 31.0974L42.9129 35.196L42.7656 35.2753Z" fill="url(#paint1_linear_104_3)"/>
<path d="M42.9129 35.196L36.5319 28.966L17.7006 47.3537C18.4012 48.0728 19.5437 48.1594 20.8429 47.4404L42.9129 35.196Z" fill="url(#paint2_linear_104_3)"/>
<path d="M42.9129 22.736L20.8429 10.4916C19.5437 9.77996 18.4012 9.86662 17.7006 10.5857L36.5319 28.966L42.9129 22.736Z" fill="url(#paint3_linear_104_3)"/>
<defs>
<linearGradient id="paint0_linear_104_3" x1="34.8697" y1="45.6192" x2="10.1228" y2="20.2726" gradientUnits="userSpaceOnUse">
<stop stop-color="#00A0FF"/>
<stop offset="0.0066" stop-color="#00A1FF"/>
<stop offset="0.2601" stop-color="#00BEFF"/>
<stop offset="0.5122" stop-color="#00D2FF"/>
<stop offset="0.7604" stop-color="#00DFFF"/>
<stop offset="1" stop-color="#00E3FF"/>
</linearGradient>
<linearGradient id="paint1_linear_104_3" x1="53.051" y1="28.9639" x2="16.4958" y2="28.9639" gradientUnits="userSpaceOnUse">
<stop stop-color="#FFE000"/>
<stop offset="0.4087" stop-color="#FFBD00"/>
<stop offset="0.7754" stop-color="#FFA500"/>
<stop offset="1" stop-color="#FF9C00"/>
</linearGradient>
<linearGradient id="paint2_linear_104_3" x1="39.4431" y1="25.5793" x2="5.88427" y2="-8.79278" gradientUnits="userSpaceOnUse">
<stop stop-color="#FF3A44"/>
<stop offset="1" stop-color="#C31162"/>
</linearGradient>
<linearGradient id="paint3_linear_104_3" x1="12.9603" y1="58.2061" x2="27.9459" y2="42.8576" gradientUnits="userSpaceOnUse">
<stop stop-color="#32A071"/>
<stop offset="0.0685" stop-color="#2DA771"/>
<stop offset="0.4762" stop-color="#15CF74"/>
<stop offset="0.8009" stop-color="#06E775"/>
<stop offset="1" stop-color="#00F076"/>
</linearGradient>
</defs>
</svg>
