<svg xmlns="http://www.w3.org/2000/svg" xmlns:xlink="http://www.w3.org/1999/xlink" width="412" zoomAndPan="magnify" viewBox="0 0 309 76.499998" height="102" preserveAspectRatio="xMidYMid meet" version="1.0"><defs><g/><clipPath id="4154498ddd"><path d="M 1.003906 18.273438 L 27.082031 18.273438 L 27.082031 44.355469 L 1.003906 44.355469 Z M 1.003906 18.273438 " clip-rule="nonzero"/></clipPath></defs><g clip-path="url(#4154498ddd)"><path fill="#ecb602" d="M 27.078125 18.273438 L 1.003906 18.273438 L 1.003906 44.355469 L 27.078125 44.355469 Z M 27.078125 18.273438 " fill-opacity="1" fill-rule="nonzero"/></g><path fill="#55185d" d="M 13.796875 22.832031 L 5.554688 22.832031 L 5.554688 31.113281 L 13.796875 31.113281 Z M 13.796875 22.832031 " fill-opacity="1" fill-rule="nonzero"/><path fill="#55185d" d="M 22.515625 22.832031 L 14.273438 22.832031 L 14.273438 31.113281 L 22.515625 31.113281 Z M 22.515625 22.832031 " fill-opacity="1" fill-rule="nonzero"/><path fill="#55185d" d="M 13.796875 31.515625 L 5.554688 31.515625 L 5.554688 39.796875 L 13.796875 39.796875 Z M 13.796875 31.515625 " fill-opacity="1" fill-rule="nonzero"/><path fill="#55185d" d="M 22.515625 31.515625 L 14.273438 31.515625 L 14.273438 39.796875 L 22.515625 39.796875 Z M 22.515625 31.515625 " fill-opacity="1" fill-rule="nonzero"/><g fill="#ffffff" fill-opacity="1"><g transform="translate(35.199769, 43.782423)"><g><path d="M 23.59375 0 L 23.59375 -16.828125 L 17.015625 -4.296875 L 14.234375 -4.296875 L 7.65625 -16.828125 L 7.65625 0 L 2.671875 0 L 2.671875 -25.65625 L 8.015625 -25.65625 L 15.609375 -11.046875 L 23.265625 -25.65625 L 28.578125 -25.65625 L 28.578125 0 Z M 23.59375 0 "/></g></g></g><g fill="#ffffff" fill-opacity="1"><g transform="translate(68.437018, 43.782423)"><g><path d="M 13.546875 0.1875 C 11.492188 0.1875 9.75 -0.15625 8.3125 -0.84375 C 6.882812 -1.53125 5.734375 -2.472656 4.859375 -3.671875 C 3.984375 -4.878906 3.335938 -6.25 2.921875 -7.78125 C 2.515625 -9.3125 2.3125 -10.910156 2.3125 -12.578125 L 2.3125 -25.65625 L 7.296875 -25.65625 L 7.296875 -12.578125 C 7.296875 -11.515625 7.394531 -10.484375 7.59375 -9.484375 C 7.800781 -8.484375 8.144531 -7.582031 8.625 -6.78125 C 9.113281 -5.988281 9.753906 -5.363281 10.546875 -4.90625 C 11.335938 -4.457031 12.328125 -4.234375 13.515625 -4.234375 C 14.710938 -4.234375 15.710938 -4.46875 16.515625 -4.9375 C 17.328125 -5.40625 17.96875 -6.035156 18.4375 -6.828125 C 18.90625 -7.617188 19.25 -8.515625 19.46875 -9.515625 C 19.6875 -10.515625 19.796875 -11.535156 19.796875 -12.578125 L 19.796875 -25.65625 L 24.75 -25.65625 L 24.75 -12.578125 C 24.75 -10.816406 24.535156 -9.164062 24.109375 -7.625 C 23.691406 -6.082031 23.03125 -4.726562 22.125 -3.5625 C 21.21875 -2.394531 20.054688 -1.476562 18.640625 -0.8125 C 17.222656 -0.144531 15.523438 0.1875 13.546875 0.1875 Z M 13.546875 0.1875 "/></g></g></g><g fill="#ffffff" fill-opacity="1"><g transform="translate(97.519658, 43.782423)"><g><path d="M 17.953125 -18.921875 C 17.785156 -19.097656 17.476562 -19.328125 17.03125 -19.609375 C 16.582031 -19.898438 16.039062 -20.175781 15.40625 -20.4375 C 14.769531 -20.707031 14.078125 -20.941406 13.328125 -21.140625 C 12.578125 -21.347656 11.816406 -21.453125 11.046875 -21.453125 C 9.703125 -21.453125 8.6875 -21.195312 8 -20.6875 C 7.3125 -20.1875 6.96875 -19.476562 6.96875 -18.5625 C 6.96875 -17.863281 7.179688 -17.3125 7.609375 -16.90625 C 8.046875 -16.5 8.695312 -16.148438 9.5625 -15.859375 C 10.4375 -15.566406 11.523438 -15.253906 12.828125 -14.921875 C 14.515625 -14.515625 15.976562 -14.015625 17.21875 -13.421875 C 18.457031 -12.828125 19.40625 -12.054688 20.0625 -11.109375 C 20.726562 -10.160156 21.0625 -8.898438 21.0625 -7.328125 C 21.0625 -5.960938 20.804688 -4.789062 20.296875 -3.8125 C 19.796875 -2.832031 19.097656 -2.039062 18.203125 -1.4375 C 17.316406 -0.84375 16.304688 -0.40625 15.171875 -0.125 C 14.035156 0.144531 12.832031 0.28125 11.5625 0.28125 C 10.28125 0.28125 9 0.148438 7.71875 -0.109375 C 6.445312 -0.367188 5.222656 -0.742188 4.046875 -1.234375 C 2.867188 -1.734375 1.785156 -2.332031 0.796875 -3.03125 L 3 -7.328125 C 3.21875 -7.117188 3.601562 -6.835938 4.15625 -6.484375 C 4.707031 -6.128906 5.378906 -5.773438 6.171875 -5.421875 C 6.972656 -5.078125 7.84375 -4.785156 8.78125 -4.546875 C 9.71875 -4.304688 10.664062 -4.1875 11.625 -4.1875 C 12.976562 -4.1875 14.003906 -4.414062 14.703125 -4.875 C 15.398438 -5.332031 15.75 -5.984375 15.75 -6.828125 C 15.75 -7.597656 15.472656 -8.195312 14.921875 -8.625 C 14.367188 -9.0625 13.597656 -9.441406 12.609375 -9.765625 C 11.617188 -10.097656 10.453125 -10.457031 9.109375 -10.84375 C 7.492188 -11.300781 6.144531 -11.8125 5.0625 -12.375 C 3.976562 -12.9375 3.171875 -13.648438 2.640625 -14.515625 C 2.109375 -15.390625 1.84375 -16.476562 1.84375 -17.78125 C 1.84375 -19.53125 2.253906 -21 3.078125 -22.1875 C 3.910156 -23.382812 5.035156 -24.289062 6.453125 -24.90625 C 7.878906 -25.519531 9.460938 -25.828125 11.203125 -25.828125 C 12.398438 -25.828125 13.535156 -25.691406 14.609375 -25.421875 C 15.679688 -25.160156 16.6875 -24.8125 17.625 -24.375 C 18.5625 -23.945312 19.40625 -23.476562 20.15625 -22.96875 Z M 17.953125 -18.921875 "/></g></g></g><g fill="#ffffff" fill-opacity="1"><g transform="translate(121.652872, 43.782423)"><g><path d="M 21.859375 -21.28125 L 13.65625 -21.28125 L 13.65625 0 L 8.703125 0 L 8.703125 -21.28125 L 0.5 -21.28125 L 0.5 -25.65625 L 21.859375 -25.65625 Z M 21.859375 -21.28125 "/></g></g></g><g fill="#ffffff" fill-opacity="1"><g transform="translate(146.002856, 43.782423)"><g><path d="M 20.484375 -4.375 L 20.484375 0 L 2.671875 0 L 2.671875 -25.65625 L 20.15625 -25.65625 L 20.15625 -21.28125 L 7.65625 -21.28125 L 7.65625 -15.09375 L 18.453125 -15.09375 L 18.453125 -11.046875 L 7.65625 -11.046875 L 7.65625 -4.375 Z M 20.484375 -4.375 "/></g></g></g><g fill="#ffffff" fill-opacity="1"><g transform="translate(169.702557, 43.782423)"><g><path d="M 2.671875 0 L 2.671875 -25.65625 L 14.015625 -25.65625 C 15.191406 -25.65625 16.28125 -25.410156 17.28125 -24.921875 C 18.28125 -24.441406 19.144531 -23.789062 19.875 -22.96875 C 20.613281 -22.15625 21.179688 -21.242188 21.578125 -20.234375 C 21.984375 -19.222656 22.1875 -18.1875 22.1875 -17.125 C 22.1875 -16.039062 22 -15 21.625 -14 C 21.25 -13 20.710938 -12.125 20.015625 -11.375 C 19.316406 -10.632812 18.5 -10.054688 17.5625 -9.640625 L 23.40625 0 L 17.921875 0 L 12.640625 -8.59375 L 7.65625 -8.59375 L 7.65625 0 Z M 7.65625 -12.96875 L 13.90625 -12.96875 C 14.53125 -12.96875 15.082031 -13.15625 15.5625 -13.53125 C 16.050781 -13.90625 16.4375 -14.40625 16.71875 -15.03125 C 17.007812 -15.65625 17.15625 -16.351562 17.15625 -17.125 C 17.15625 -17.9375 16.984375 -18.648438 16.640625 -19.265625 C 16.304688 -19.878906 15.878906 -20.367188 15.359375 -20.734375 C 14.847656 -21.097656 14.289062 -21.28125 13.6875 -21.28125 L 7.65625 -21.28125 Z M 7.65625 -12.96875 "/></g></g></g><g fill="#ffffff" fill-opacity="1"><g transform="translate(195.714394, 43.782423)"><g><path d="M 13.328125 0.1875 C 11.671875 0.1875 10.097656 -0.148438 8.609375 -0.828125 C 7.128906 -1.503906 5.828125 -2.4375 4.703125 -3.625 C 3.585938 -4.820312 2.71875 -6.210938 2.09375 -7.796875 C 1.46875 -9.390625 1.15625 -11.113281 1.15625 -12.96875 C 1.15625 -14.726562 1.46875 -16.382812 2.09375 -17.9375 C 2.71875 -19.488281 3.597656 -20.851562 4.734375 -22.03125 C 5.867188 -23.21875 7.191406 -24.144531 8.703125 -24.8125 C 10.222656 -25.488281 11.875 -25.828125 13.65625 -25.828125 C 16.0625 -25.828125 18.125 -25.316406 19.84375 -24.296875 C 21.570312 -23.273438 22.867188 -21.921875 23.734375 -20.234375 L 20.015625 -17.484375 C 19.359375 -18.765625 18.445312 -19.738281 17.28125 -20.40625 C 16.113281 -21.082031 14.84375 -21.421875 13.46875 -21.421875 C 12.382812 -21.421875 11.394531 -21.191406 10.5 -20.734375 C 9.613281 -20.273438 8.84375 -19.648438 8.1875 -18.859375 C 7.539062 -18.066406 7.039062 -17.148438 6.6875 -16.109375 C 6.34375 -15.078125 6.171875 -13.984375 6.171875 -12.828125 C 6.171875 -11.597656 6.359375 -10.460938 6.734375 -9.421875 C 7.109375 -8.390625 7.640625 -7.488281 8.328125 -6.71875 C 9.015625 -5.945312 9.816406 -5.335938 10.734375 -4.890625 C 11.648438 -4.453125 12.660156 -4.234375 13.765625 -4.234375 C 15.066406 -4.234375 16.3125 -4.566406 17.5 -5.234375 C 18.695312 -5.910156 19.8125 -6.898438 20.84375 -8.203125 L 20.84375 -3.28125 C 18.695312 -0.96875 16.191406 0.1875 13.328125 0.1875 Z M 20.484375 -9.53125 L 15.3125 -9.53125 L 15.3125 -13.1875 L 24.59375 -13.1875 L 24.59375 0 L 20.484375 0 Z M 20.484375 -9.53125 "/></g></g></g><g fill="#ffffff" fill-opacity="1"><g transform="translate(223.893856, 43.782423)"><g><path d="M 9.640625 -25.65625 L 14.703125 -25.65625 L 24.125 0 L 19 0 L 16.625 -6.390625 L 7.65625 -6.390625 L 5.3125 0 L 0.1875 0 Z M 15.71875 -9.890625 L 12.171875 -20.484375 L 8.484375 -9.890625 Z M 15.71875 -9.890625 "/></g></g></g><g fill="#ffffff" fill-opacity="1"><g transform="translate(250.158579, 43.782423)"><g><path d="M 21.859375 -21.28125 L 13.65625 -21.28125 L 13.65625 0 L 8.703125 0 L 8.703125 -21.28125 L 0.5 -21.28125 L 0.5 -25.65625 L 21.859375 -25.65625 Z M 21.859375 -21.28125 "/></g></g></g><g fill="#ffffff" fill-opacity="1"><g transform="translate(274.508552, 43.782423)"><g><path d="M 20.484375 -4.375 L 20.484375 0 L 2.671875 0 L 2.671875 -25.65625 L 20.15625 -25.65625 L 20.15625 -21.28125 L 7.65625 -21.28125 L 7.65625 -15.09375 L 18.453125 -15.09375 L 18.453125 -11.046875 L 7.65625 -11.046875 L 7.65625 -4.375 Z M 20.484375 -4.375 "/></g></g></g><g fill="#ffffff" fill-opacity="1"><g transform="translate(115.145336, 67.279912)"><g><path d="M 10.71875 0 L 10.71875 -8.625 L 6.875 -1.921875 L 6.21875 -1.921875 L 2.375 -8.625 L 2.375 0 L 1.328125 0 L 1.328125 -10.59375 L 2.40625 -10.59375 L 6.53125 -3.34375 L 10.703125 -10.59375 L 11.765625 -10.59375 L 11.765625 0 Z M 10.71875 0 "/></g></g></g><g fill="#ffffff" fill-opacity="1"><g transform="translate(128.335901, 67.279912)"><g><path d="M 1.125 0 L 1.125 -7.78125 L 2.140625 -7.78125 L 2.140625 0 Z M 1.125 -9.40625 L 1.125 -10.890625 L 2.140625 -10.890625 L 2.140625 -9.40625 Z M 1.125 -9.40625 "/></g></g></g><g fill="#ffffff" fill-opacity="1"><g transform="translate(131.693248, 67.279912)"><g><path d="M 7.65625 0 L 6.640625 0 L 6.640625 -4.34375 C 6.640625 -5.257812 6.503906 -5.925781 6.234375 -6.34375 C 5.960938 -6.769531 5.539062 -6.984375 4.96875 -6.984375 C 4.570312 -6.984375 4.175781 -6.882812 3.78125 -6.6875 C 3.394531 -6.5 3.054688 -6.238281 2.765625 -5.90625 C 2.472656 -5.570312 2.265625 -5.191406 2.140625 -4.765625 L 2.140625 0 L 1.125 0 L 1.125 -7.78125 L 2.046875 -7.78125 L 2.046875 -6.015625 C 2.253906 -6.390625 2.523438 -6.71875 2.859375 -7 C 3.203125 -7.289062 3.585938 -7.515625 4.015625 -7.671875 C 4.441406 -7.828125 4.882812 -7.90625 5.34375 -7.90625 C 5.769531 -7.90625 6.128906 -7.828125 6.421875 -7.671875 C 6.722656 -7.515625 6.960938 -7.285156 7.140625 -6.984375 C 7.328125 -6.691406 7.457031 -6.335938 7.53125 -5.921875 C 7.613281 -5.515625 7.65625 -5.054688 7.65625 -4.546875 Z M 7.65625 0 "/></g></g></g><g fill="#ffffff" fill-opacity="1"><g transform="translate(140.496908, 67.279912)"><g><path d="M 0.59375 -3.859375 C 0.59375 -4.597656 0.742188 -5.269531 1.046875 -5.875 C 1.347656 -6.488281 1.769531 -6.976562 2.3125 -7.34375 C 2.851562 -7.71875 3.460938 -7.90625 4.140625 -7.90625 C 4.796875 -7.90625 5.378906 -7.734375 5.890625 -7.390625 C 6.398438 -7.046875 6.800781 -6.628906 7.09375 -6.140625 L 7.09375 -10.890625 L 8.109375 -10.890625 L 8.109375 -1.21875 C 8.109375 -1.082031 8.132812 -0.984375 8.1875 -0.921875 C 8.25 -0.859375 8.335938 -0.820312 8.453125 -0.8125 L 8.453125 0 C 8.253906 0.03125 8.101562 0.0390625 8 0.03125 C 7.789062 0.0195312 7.601562 -0.0625 7.4375 -0.21875 C 7.28125 -0.382812 7.203125 -0.5625 7.203125 -0.75 L 7.203125 -1.5 C 6.898438 -1 6.484375 -0.597656 5.953125 -0.296875 C 5.421875 0.00390625 4.875 0.15625 4.3125 0.15625 C 3.769531 0.15625 3.273438 0.046875 2.828125 -0.171875 C 2.378906 -0.390625 1.988281 -0.6875 1.65625 -1.0625 C 1.320312 -1.445312 1.0625 -1.878906 0.875 -2.359375 C 0.6875 -2.847656 0.59375 -3.347656 0.59375 -3.859375 Z M 7.09375 -2.671875 L 7.09375 -5.078125 C 6.957031 -5.429688 6.742188 -5.753906 6.453125 -6.046875 C 6.171875 -6.335938 5.847656 -6.570312 5.484375 -6.75 C 5.117188 -6.925781 4.757812 -7.015625 4.40625 -7.015625 C 3.988281 -7.015625 3.609375 -6.925781 3.265625 -6.75 C 2.929688 -6.570312 2.640625 -6.332031 2.390625 -6.03125 C 2.148438 -5.738281 1.960938 -5.40625 1.828125 -5.03125 C 1.703125 -4.65625 1.640625 -4.265625 1.640625 -3.859375 C 1.640625 -3.441406 1.710938 -3.046875 1.859375 -2.671875 C 2.003906 -2.296875 2.207031 -1.957031 2.46875 -1.65625 C 2.738281 -1.363281 3.046875 -1.140625 3.390625 -0.984375 C 3.742188 -0.828125 4.125 -0.75 4.53125 -0.75 C 4.789062 -0.75 5.0625 -0.796875 5.34375 -0.890625 C 5.625 -0.992188 5.890625 -1.128906 6.140625 -1.296875 C 6.390625 -1.472656 6.597656 -1.679688 6.765625 -1.921875 C 6.941406 -2.160156 7.050781 -2.410156 7.09375 -2.671875 Z M 7.09375 -2.671875 "/></g></g></g><g fill="#ffffff" fill-opacity="1"><g transform="translate(149.88251, 67.279912)"><g><path d="M 3.671875 0.15625 C 3.035156 0.15625 2.441406 0.0507812 1.890625 -0.15625 C 1.347656 -0.375 0.878906 -0.695312 0.484375 -1.125 L 0.890625 -1.828125 C 1.328125 -1.421875 1.765625 -1.125 2.203125 -0.9375 C 2.648438 -0.757812 3.125 -0.671875 3.625 -0.671875 C 4.226562 -0.671875 4.71875 -0.789062 5.09375 -1.03125 C 5.476562 -1.28125 5.671875 -1.632812 5.671875 -2.09375 C 5.671875 -2.394531 5.578125 -2.628906 5.390625 -2.796875 C 5.210938 -2.960938 4.953125 -3.097656 4.609375 -3.203125 C 4.265625 -3.304688 3.851562 -3.414062 3.375 -3.53125 C 2.832031 -3.6875 2.378906 -3.84375 2.015625 -4 C 1.660156 -4.164062 1.390625 -4.375 1.203125 -4.625 C 1.015625 -4.882812 0.921875 -5.21875 0.921875 -5.625 C 0.921875 -6.132812 1.046875 -6.554688 1.296875 -6.890625 C 1.554688 -7.222656 1.90625 -7.472656 2.34375 -7.640625 C 2.789062 -7.816406 3.285156 -7.90625 3.828125 -7.90625 C 4.429688 -7.90625 4.960938 -7.8125 5.421875 -7.625 C 5.878906 -7.4375 6.25 -7.171875 6.53125 -6.828125 L 6.046875 -6.140625 C 5.765625 -6.460938 5.429688 -6.703125 5.046875 -6.859375 C 4.671875 -7.015625 4.25 -7.09375 3.78125 -7.09375 C 3.457031 -7.09375 3.148438 -7.046875 2.859375 -6.953125 C 2.578125 -6.867188 2.34375 -6.726562 2.15625 -6.53125 C 1.96875 -6.34375 1.875 -6.082031 1.875 -5.75 C 1.875 -5.46875 1.941406 -5.25 2.078125 -5.09375 C 2.222656 -4.9375 2.4375 -4.804688 2.71875 -4.703125 C 3 -4.597656 3.34375 -4.488281 3.75 -4.375 C 4.332031 -4.21875 4.84375 -4.054688 5.28125 -3.890625 C 5.71875 -3.722656 6.054688 -3.507812 6.296875 -3.25 C 6.535156 -2.988281 6.65625 -2.625 6.65625 -2.15625 C 6.65625 -1.4375 6.378906 -0.867188 5.828125 -0.453125 C 5.285156 -0.046875 4.566406 0.15625 3.671875 0.15625 Z M 3.671875 0.15625 "/></g></g></g><g fill="#ffffff" fill-opacity="1"><g transform="translate(157.194035, 67.279912)"><g/></g></g><g fill="#ffffff" fill-opacity="1"><g transform="translate(161.103472, 67.279912)"><g><path d="M 0.5 -2.234375 C 0.5 -2.722656 0.632812 -3.144531 0.90625 -3.5 C 1.1875 -3.851562 1.570312 -4.125 2.0625 -4.3125 C 2.5625 -4.507812 3.132812 -4.609375 3.78125 -4.609375 C 4.15625 -4.609375 4.546875 -4.578125 4.953125 -4.515625 C 5.359375 -4.460938 5.722656 -4.375 6.046875 -4.25 L 6.046875 -4.90625 C 6.046875 -5.5625 5.847656 -6.082031 5.453125 -6.46875 C 5.066406 -6.863281 4.53125 -7.0625 3.84375 -7.0625 C 3.425781 -7.0625 3.015625 -6.984375 2.609375 -6.828125 C 2.210938 -6.671875 1.796875 -6.441406 1.359375 -6.140625 L 0.96875 -6.859375 C 1.476562 -7.210938 1.972656 -7.472656 2.453125 -7.640625 C 2.941406 -7.816406 3.441406 -7.90625 3.953125 -7.90625 C 4.910156 -7.90625 5.664062 -7.628906 6.21875 -7.078125 C 6.78125 -6.535156 7.0625 -5.78125 7.0625 -4.8125 L 7.0625 -1.21875 C 7.0625 -1.082031 7.085938 -0.984375 7.140625 -0.921875 C 7.203125 -0.859375 7.300781 -0.820312 7.4375 -0.8125 L 7.4375 0 C 7.320312 0.0078125 7.222656 0.0195312 7.140625 0.03125 C 7.066406 0.0390625 7.007812 0.0390625 6.96875 0.03125 C 6.71875 0.0195312 6.523438 -0.0546875 6.390625 -0.203125 C 6.265625 -0.359375 6.195312 -0.519531 6.1875 -0.6875 L 6.171875 -1.25 C 5.828125 -0.800781 5.375 -0.453125 4.8125 -0.203125 C 4.257812 0.0351562 3.695312 0.15625 3.125 0.15625 C 2.625 0.15625 2.171875 0.046875 1.765625 -0.171875 C 1.359375 -0.390625 1.046875 -0.675781 0.828125 -1.03125 C 0.609375 -1.394531 0.5 -1.796875 0.5 -2.234375 Z M 5.703125 -1.640625 C 5.804688 -1.773438 5.890625 -1.90625 5.953125 -2.03125 C 6.015625 -2.164062 6.046875 -2.285156 6.046875 -2.390625 L 6.046875 -3.515625 C 5.703125 -3.648438 5.347656 -3.75 4.984375 -3.8125 C 4.628906 -3.882812 4.265625 -3.921875 3.890625 -3.921875 C 3.171875 -3.921875 2.585938 -3.773438 2.140625 -3.484375 C 1.691406 -3.203125 1.46875 -2.8125 1.46875 -2.3125 C 1.46875 -2.019531 1.539062 -1.75 1.6875 -1.5 C 1.832031 -1.25 2.050781 -1.039062 2.34375 -0.875 C 2.632812 -0.707031 2.972656 -0.625 3.359375 -0.625 C 3.847656 -0.625 4.300781 -0.71875 4.71875 -0.90625 C 5.144531 -1.09375 5.472656 -1.335938 5.703125 -1.640625 Z M 5.703125 -1.640625 "/></g></g></g><g fill="#ffffff" fill-opacity="1"><g transform="translate(169.340124, 67.279912)"><g><path d="M 4.84375 -0.375 C 4.769531 -0.34375 4.644531 -0.285156 4.46875 -0.203125 C 4.300781 -0.128906 4.097656 -0.0625 3.859375 0 C 3.617188 0.0625 3.363281 0.09375 3.09375 0.09375 C 2.800781 0.09375 2.523438 0.0390625 2.265625 -0.0625 C 2.015625 -0.175781 1.816406 -0.34375 1.671875 -0.5625 C 1.523438 -0.789062 1.453125 -1.070312 1.453125 -1.40625 L 1.453125 -6.96875 L 0.375 -6.96875 L 0.375 -7.78125 L 1.453125 -7.78125 L 1.453125 -10.40625 L 2.46875 -10.40625 L 2.46875 -7.78125 L 4.25 -7.78125 L 4.25 -6.96875 L 2.46875 -6.96875 L 2.46875 -1.6875 C 2.476562 -1.40625 2.578125 -1.191406 2.765625 -1.046875 C 2.953125 -0.910156 3.164062 -0.84375 3.40625 -0.84375 C 3.675781 -0.84375 3.925781 -0.890625 4.15625 -0.984375 C 4.382812 -1.085938 4.523438 -1.15625 4.578125 -1.1875 Z M 4.84375 -0.375 "/></g></g></g><g fill="#ffffff" fill-opacity="1"><g transform="translate(174.443279, 67.279912)"><g/></g></g><g fill="#ffffff" fill-opacity="1"><g transform="translate(178.352716, 67.279912)"><g><path d="M 5.3125 -10.515625 L 6.296875 -10.515625 L 7.796875 -6.765625 L 9.296875 -10.515625 L 10.296875 -10.515625 L 8.453125 -6 L 10.46875 -1.203125 L 14.3125 -10.59375 L 15.4375 -10.59375 L 10.953125 0 L 10.03125 0 L 7.796875 -5.234375 L 5.5625 0 L 4.65625 0 L 0.171875 -10.59375 L 1.296875 -10.59375 L 5.140625 -1.203125 L 7.15625 -6 Z M 5.3125 -10.515625 "/></g></g></g><g fill="#ffffff" fill-opacity="1"><g transform="translate(194.065003, 67.279912)"><g><path d="M 4.4375 0.15625 C 3.875 0.15625 3.351562 0.046875 2.875 -0.171875 C 2.40625 -0.390625 2 -0.679688 1.65625 -1.046875 C 1.320312 -1.421875 1.054688 -1.847656 0.859375 -2.328125 C 0.671875 -2.816406 0.578125 -3.328125 0.578125 -3.859375 C 0.578125 -4.421875 0.671875 -4.941406 0.859375 -5.421875 C 1.054688 -5.898438 1.328125 -6.328125 1.671875 -6.703125 C 2.015625 -7.078125 2.421875 -7.367188 2.890625 -7.578125 C 3.367188 -7.796875 3.890625 -7.90625 4.453125 -7.90625 C 5.003906 -7.90625 5.515625 -7.796875 5.984375 -7.578125 C 6.453125 -7.367188 6.859375 -7.078125 7.203125 -6.703125 C 7.554688 -6.328125 7.828125 -5.898438 8.015625 -5.421875 C 8.203125 -4.941406 8.296875 -4.421875 8.296875 -3.859375 C 8.296875 -3.328125 8.203125 -2.816406 8.015625 -2.328125 C 7.828125 -1.847656 7.5625 -1.421875 7.21875 -1.046875 C 6.875 -0.679688 6.460938 -0.390625 5.984375 -0.171875 C 5.515625 0.046875 5 0.15625 4.4375 0.15625 Z M 1.609375 -3.84375 C 1.609375 -3.269531 1.734375 -2.742188 1.984375 -2.265625 C 2.242188 -1.796875 2.585938 -1.425781 3.015625 -1.15625 C 3.441406 -0.882812 3.914062 -0.75 4.4375 -0.75 C 4.945312 -0.75 5.414062 -0.882812 5.84375 -1.15625 C 6.269531 -1.4375 6.613281 -1.816406 6.875 -2.296875 C 7.132812 -2.785156 7.265625 -3.3125 7.265625 -3.875 C 7.265625 -4.457031 7.132812 -4.984375 6.875 -5.453125 C 6.613281 -5.929688 6.269531 -6.3125 5.84375 -6.59375 C 5.414062 -6.875 4.945312 -7.015625 4.4375 -7.015625 C 3.914062 -7.015625 3.441406 -6.867188 3.015625 -6.578125 C 2.597656 -6.285156 2.257812 -5.90625 2 -5.4375 C 1.738281 -4.96875 1.609375 -4.4375 1.609375 -3.84375 Z M 1.609375 -3.84375 "/></g></g></g><g fill="#ffffff" fill-opacity="1"><g transform="translate(203.047723, 67.279912)"><g><path d="M 5 -6.875 C 4.320312 -6.851562 3.726562 -6.664062 3.21875 -6.3125 C 2.707031 -5.957031 2.347656 -5.460938 2.140625 -4.828125 L 2.140625 0 L 1.125 0 L 1.125 -7.78125 L 2.078125 -7.78125 L 2.078125 -5.90625 C 2.347656 -6.457031 2.703125 -6.898438 3.140625 -7.234375 C 3.585938 -7.578125 4.054688 -7.765625 4.546875 -7.796875 C 4.648438 -7.804688 4.738281 -7.8125 4.8125 -7.8125 C 4.882812 -7.8125 4.945312 -7.804688 5 -7.796875 Z M 5 -6.875 "/></g></g></g><g fill="#ffffff" fill-opacity="1"><g transform="translate(208.389617, 67.279912)"><g><path d="M 6.671875 0 L 3.796875 -3.984375 L 2.140625 -2.4375 L 2.140625 0 L 1.125 0 L 1.125 -10.890625 L 2.140625 -10.890625 L 2.140625 -3.515625 L 6.53125 -7.765625 L 7.65625 -7.765625 L 4.484375 -4.578125 L 7.78125 0 Z M 6.671875 0 "/></g></g></g></svg>