<svg width="247" height="60" viewBox="0 0 247 60" fill="none" xmlns="http://www.w3.org/2000/svg">
<path d="M119.181 55.0836V46.4375L115.448 53.0896H114.571L110.822 46.4375V55.0836H109.387V43.7575H110.902L115.002 51.1115L119.118 43.7575H120.617V55.0836H119.181Z" fill="white"/>
<path d="M123.22 45.1932V43.4385H124.624V45.1932H123.22ZM123.22 55.0836V46.7565H124.624V55.0836H123.22Z" fill="white"/>
<path d="M134.237 55.0836H132.833V50.4255C132.833 49.5429 132.695 48.8994 132.418 48.4953C132.152 48.0806 131.743 47.8732 131.19 47.8732C130.807 47.8732 130.424 47.9689 130.041 48.1603C129.669 48.3518 129.334 48.6123 129.036 48.942C128.749 49.261 128.542 49.6332 128.414 50.0586V55.0836H127.01V46.7565H128.286V48.5432C128.616 47.9583 129.089 47.4903 129.706 47.1394C130.334 46.7884 131.014 46.613 131.748 46.613C132.397 46.613 132.897 46.7672 133.248 47.0756C133.609 47.3734 133.864 47.7881 134.013 48.3199C134.162 48.841 134.237 49.4365 134.237 50.1065V55.0836Z" fill="white"/>
<path d="M135.991 50.936C135.991 50.149 136.151 49.4312 136.47 48.7825C136.799 48.1231 137.246 47.5967 137.81 47.2032C138.384 46.8097 139.038 46.613 139.772 46.613C140.442 46.613 141.043 46.7884 141.574 47.1394C142.106 47.4903 142.521 47.9157 142.819 48.4156V43.4385H144.223V53.4884C144.223 53.818 144.371 53.9882 144.669 53.9988V55.0836C144.403 55.1261 144.196 55.1474 144.047 55.1474C143.771 55.1474 143.526 55.0517 143.313 54.8603C143.111 54.6688 143.01 54.4561 143.01 54.2222V53.5203C142.68 54.052 142.239 54.4721 141.686 54.7805C141.133 55.0889 140.559 55.2431 139.963 55.2431C139.198 55.2431 138.512 55.0464 137.905 54.6529C137.31 54.2488 136.842 53.7223 136.502 53.0736C136.161 52.4143 135.991 51.7017 135.991 50.936ZM142.819 52.1643V49.7715C142.691 49.4099 142.484 49.0856 142.197 48.7984C141.909 48.5006 141.585 48.2667 141.223 48.0965C140.873 47.9157 140.522 47.8253 140.171 47.8253C139.628 47.8253 139.15 47.9742 138.735 48.272C138.331 48.5698 138.012 48.9579 137.778 49.4365C137.554 49.9151 137.443 50.4202 137.443 50.952C137.443 51.505 137.565 52.0154 137.81 52.4834C138.065 52.9513 138.411 53.3288 138.847 53.616C139.283 53.8925 139.767 54.0307 140.298 54.0307C140.639 54.0307 140.99 53.951 141.351 53.7915C141.713 53.6213 142.032 53.3927 142.308 53.1055C142.585 52.8184 142.755 52.5046 142.819 52.1643Z" fill="white"/>
<path d="M149.535 55.2431C148.844 55.2431 148.195 55.1314 147.589 54.9081C146.983 54.6741 146.462 54.3285 146.026 53.8712L146.568 52.8822C147.047 53.3288 147.525 53.6479 148.004 53.8393C148.483 54.0307 148.972 54.1265 149.472 54.1265C150.046 54.1265 150.514 54.0201 150.875 53.8074C151.237 53.5841 151.418 53.2597 151.418 52.8343C151.418 52.5259 151.322 52.2973 151.131 52.1484C150.95 51.9995 150.689 51.8772 150.349 51.7815C150.009 51.6751 149.605 51.5581 149.137 51.4305C148.275 51.1859 147.616 50.8988 147.159 50.5691C146.712 50.2288 146.489 49.7343 146.489 49.0856C146.489 48.2986 146.786 47.6924 147.382 47.267C147.988 46.831 148.759 46.613 149.695 46.613C150.95 46.613 151.939 46.9905 152.662 47.7456L152.024 48.7187C151.375 48.0487 150.572 47.7137 149.615 47.7137C149.328 47.7137 149.046 47.7509 148.77 47.8253C148.493 47.8891 148.265 48.0114 148.084 48.1922C147.903 48.3624 147.813 48.607 147.813 48.926C147.813 49.3195 147.972 49.6013 148.291 49.7715C148.61 49.9417 149.078 50.1171 149.695 50.2979C150.322 50.4787 150.865 50.6595 151.322 50.8403C151.79 51.0211 152.152 51.2551 152.407 51.5422C152.662 51.8293 152.79 52.2281 152.79 52.7386C152.79 53.5256 152.492 54.1424 151.896 54.5891C151.301 55.0251 150.514 55.2431 149.535 55.2431Z" fill="white"/>
<path d="M158.078 52.6748C158.078 52.1431 158.227 51.6858 158.524 51.3029C158.833 50.9094 159.253 50.6063 159.785 50.3936C160.316 50.1809 160.933 50.0746 161.635 50.0746C162.007 50.0746 162.401 50.1065 162.816 50.1703C163.23 50.2235 163.597 50.3086 163.916 50.4255V49.8194C163.916 49.1813 163.725 48.6814 163.342 48.3199C162.959 47.9476 162.417 47.7615 161.715 47.7615C161.258 47.7615 160.816 47.8466 160.391 48.0168C159.976 48.1763 159.535 48.4102 159.067 48.7187L158.556 47.7296C159.099 47.3574 159.641 47.0809 160.183 46.9001C160.726 46.7087 161.289 46.613 161.874 46.613C162.938 46.613 163.778 46.9107 164.395 47.5063C165.012 48.0912 165.32 48.9101 165.32 49.9629V53.4884C165.32 53.818 165.469 53.9882 165.767 53.9988V55.0836C165.628 55.1049 165.506 55.1208 165.4 55.1314C165.304 55.1421 165.224 55.1474 165.161 55.1474C164.831 55.1474 164.581 55.057 164.411 54.8762C164.251 54.6954 164.161 54.504 164.14 54.3019L164.108 53.7755C163.746 54.2434 163.273 54.605 162.688 54.8603C162.103 55.1155 161.523 55.2431 160.949 55.2431C160.396 55.2431 159.902 55.1314 159.466 54.9081C159.03 54.6741 158.689 54.3657 158.445 53.9829C158.2 53.5894 158.078 53.1534 158.078 52.6748ZM163.501 53.265C163.629 53.1161 163.73 52.9673 163.805 52.8184C163.879 52.6589 163.916 52.5259 163.916 52.4196V51.3827C163.236 51.1168 162.534 50.9839 161.811 50.9839C161.098 50.9839 160.518 51.1274 160.072 51.4146C159.636 51.6911 159.418 52.0739 159.418 52.5631C159.418 52.829 159.487 53.0896 159.625 53.3448C159.774 53.5894 159.987 53.7915 160.263 53.951C160.55 54.1105 160.901 54.1903 161.316 54.1903C161.752 54.1903 162.167 54.1052 162.56 53.935C162.954 53.7542 163.268 53.5309 163.501 53.265Z" fill="white"/>
<path d="M171.923 54.6688C171.753 54.7433 171.482 54.8496 171.11 54.9879C170.748 55.1261 170.344 55.1953 169.897 55.1953C169.387 55.1953 168.946 55.057 168.573 54.7805C168.201 54.4934 168.015 54.052 168.015 53.4565V47.8572H166.883V46.7565H168.015V43.9809H169.419V46.7565H171.285V47.8572H169.419V53.0258C169.44 53.3235 169.541 53.5469 169.722 53.6957C169.903 53.834 170.115 53.9031 170.36 53.9031C170.637 53.9031 170.892 53.8553 171.126 53.7596C171.36 53.6638 171.514 53.5947 171.588 53.5522L171.923 54.6688Z" fill="white"/>
<path d="M187.468 46.7565H188.824L185.283 55.0836H184.054L182.443 51.1593L180.848 55.0836H179.62L176.078 46.7565H177.418L180.29 53.6957L181.63 50.282L180.226 46.7725H181.454L182.443 49.4206L183.432 46.7725H184.661L183.273 50.282L184.613 53.6957L187.468 46.7565Z" fill="white"/>
<path d="M193.607 55.2431C192.778 55.2431 192.044 55.0464 191.406 54.6529C190.779 54.2488 190.289 53.7223 189.938 53.0736C189.587 52.4143 189.412 51.7017 189.412 50.936C189.412 50.1597 189.587 49.4471 189.938 48.7984C190.3 48.1391 190.795 47.6126 191.422 47.2191C192.06 46.815 192.789 46.613 193.607 46.613C194.437 46.613 195.165 46.815 195.793 47.2191C196.431 47.6126 196.925 48.1391 197.276 48.7984C197.638 49.4471 197.819 50.1597 197.819 50.936C197.819 51.7017 197.638 52.4143 197.276 53.0736C196.925 53.7223 196.436 54.2488 195.809 54.6529C195.181 55.0464 194.448 55.2431 193.607 55.2431ZM190.848 50.952C190.848 51.5262 190.97 52.0473 191.215 52.5153C191.47 52.9832 191.805 53.3554 192.22 53.6319C192.634 53.8978 193.097 54.0307 193.607 54.0307C194.118 54.0307 194.581 53.8925 194.995 53.616C195.421 53.3395 195.756 52.9673 196 52.4993C196.255 52.0208 196.383 51.4943 196.383 50.9201C196.383 50.3458 196.255 49.8247 196 49.3567C195.756 48.8888 195.421 48.5166 194.995 48.2401C194.581 47.9636 194.118 47.8253 193.607 47.8253C193.097 47.8253 192.634 47.9689 192.22 48.256C191.805 48.5325 191.47 48.9048 191.215 49.3727C190.97 49.8406 190.848 50.3671 190.848 50.952Z" fill="white"/>
<path d="M204.037 47.9849C203.335 47.9955 202.713 48.1763 202.17 48.5272C201.638 48.8675 201.261 49.3408 201.038 49.947V55.0836H199.634V46.7565H200.942V48.6868C201.229 48.1125 201.607 47.6499 202.074 47.2989C202.553 46.9373 203.053 46.7353 203.574 46.6927C203.68 46.6927 203.771 46.6927 203.845 46.6927C203.92 46.6927 203.983 46.698 204.037 46.7087V47.9849Z" fill="white"/>
<path d="M211.413 55.0836L208.526 51.0317L206.947 52.5153V55.0836H205.543V43.4385H206.947V51.0477L211.254 46.7725H212.769L209.451 50.2182L212.929 55.0836H211.413Z" fill="white"/>
<path d="M95.208 30.3239V12.2645L87.584 26.1589H85.7921L78.1355 12.2645V30.3239H75.2032V6.66675H78.2984L86.6718 22.0272L95.0777 6.66675H98.1403V30.3239H95.208Z" fill="#F1F1F1"/>
<path d="M103.061 23.36V12.9309H105.928V22.7936C105.928 26.3477 107.133 28.1248 109.544 28.1248C110.717 28.1248 111.814 27.7471 112.835 26.9919C113.878 26.2144 114.649 25.1593 115.148 23.8265V12.9309H118.015V26.9919C118.015 27.6805 118.32 28.0359 118.928 28.0581V30.3239C118.602 30.3683 118.341 30.3905 118.146 30.3905C117.972 30.4127 117.798 30.4238 117.624 30.4238C117.081 30.4238 116.614 30.2572 116.223 29.924C115.833 29.5686 115.626 29.1355 115.604 28.6246L115.539 26.592C114.801 27.8804 113.802 28.88 112.542 29.5908C111.304 30.3017 109.946 30.6571 108.469 30.6571C104.864 30.6571 103.061 28.2247 103.061 23.36Z" fill="#F1F1F1"/>
<path d="M128.623 30.6571C127.212 30.6571 125.887 30.4238 124.648 29.9573C123.41 29.4687 122.346 28.7467 121.456 27.7916L122.563 25.7257C123.541 26.6587 124.518 27.3251 125.496 27.7249C126.473 28.1248 127.472 28.3247 128.493 28.3247C129.666 28.3247 130.622 28.1025 131.36 27.6583C132.099 27.1918 132.468 26.5143 132.468 25.6258C132.468 24.9816 132.272 24.504 131.881 24.193C131.512 23.882 130.98 23.6266 130.285 23.4266C129.59 23.2045 128.765 22.9602 127.809 22.6936C126.049 22.1827 124.703 21.583 123.769 20.8943C122.857 20.1835 122.4 19.1506 122.4 17.7956C122.4 16.1518 123.009 14.8857 124.225 13.9971C125.463 13.0864 127.038 12.631 128.949 12.631C131.512 12.631 133.532 13.4196 135.009 14.9967L133.706 17.0292C132.381 15.6298 130.741 14.9301 128.786 14.9301C128.2 14.9301 127.624 15.0078 127.059 15.1633C126.495 15.2966 126.028 15.5521 125.659 15.9297C125.289 16.2851 125.105 16.796 125.105 17.4624C125.105 18.2843 125.43 18.8729 126.082 19.2283C126.734 19.5838 127.689 19.9503 128.949 20.3279C130.231 20.7055 131.338 21.0832 132.272 21.4608C133.228 21.8384 133.967 22.3271 134.488 22.9269C135.009 23.5266 135.27 24.3596 135.27 25.4258C135.27 27.0696 134.662 28.358 133.445 29.291C132.229 30.2017 130.622 30.6571 128.623 30.6571Z" fill="#F1F1F1"/>
<path d="M147.497 29.4576C147.149 29.613 146.596 29.8352 145.835 30.1239C145.097 30.4127 144.271 30.5571 143.359 30.5571C142.317 30.5571 141.415 30.2683 140.655 29.6908C139.895 29.091 139.515 28.1692 139.515 26.9252V15.23H137.201V12.9309H139.515V7.13323H142.382V12.9309H146.194V15.23H142.382V26.0256C142.425 26.6476 142.632 27.1141 143.001 27.425C143.37 27.7138 143.804 27.8582 144.304 27.8582C144.869 27.8582 145.39 27.7582 145.868 27.5583C146.346 27.3584 146.661 27.214 146.813 27.1252L147.497 29.4576Z" fill="#F1F1F1"/>
<path d="M157.458 30.6571C155.764 30.6571 154.265 30.2461 152.962 29.4242C151.658 28.6023 150.638 27.5028 149.899 26.1256C149.161 24.7483 148.791 23.2489 148.791 21.6274C148.791 19.9836 149.161 18.4842 149.899 17.1292C150.638 15.7742 151.658 14.6857 152.962 13.8638C154.287 13.042 155.796 12.631 157.49 12.631C159.206 12.631 160.694 13.0531 161.954 13.8972C163.236 14.7191 164.224 15.8075 164.919 17.1625C165.636 18.4953 165.994 19.9392 165.994 21.4941C165.994 21.9828 165.972 22.3604 165.929 22.627H151.821C151.908 23.7598 152.212 24.7706 152.734 25.6591C153.277 26.5254 153.972 27.214 154.819 27.7249C155.666 28.2136 156.578 28.458 157.556 28.458C158.598 28.458 159.576 28.1914 160.488 27.6583C161.422 27.1252 162.063 26.4254 162.41 25.5591L164.886 26.2588C164.343 27.5472 163.398 28.6023 162.052 29.4242C160.705 30.2461 159.174 30.6571 157.458 30.6571ZM151.724 20.5945H163.322C163.236 19.4616 162.921 18.462 162.378 17.5957C161.835 16.7294 161.139 16.0518 160.292 15.5632C159.445 15.0745 158.511 14.8301 157.49 14.8301C156.491 14.8301 155.568 15.0745 154.721 15.5632C153.874 16.0518 153.179 16.7294 152.636 17.5957C152.115 18.462 151.81 19.4616 151.724 20.5945Z" fill="#F1F1F1"/>
<path d="M178.173 15.4965C176.74 15.5187 175.469 15.8964 174.362 16.6294C173.275 17.3402 172.504 18.3287 172.048 19.5949V30.3239H169.181V12.9309H171.853V16.9626C172.439 15.7631 173.21 14.7968 174.166 14.0638C175.143 13.3085 176.164 12.8865 177.229 12.7976C177.446 12.7976 177.63 12.7976 177.783 12.7976C177.935 12.7976 178.065 12.8087 178.173 12.8309V15.4965Z" fill="#F1F1F1"/>
<path d="M187.508 30.5238C185.966 30.5238 184.597 30.1128 183.402 29.291C182.23 28.4468 181.306 27.3473 180.633 25.9923C179.981 24.6373 179.656 23.1934 179.656 21.6607C179.656 20.0169 179.981 18.5175 180.633 17.1625C181.306 15.7853 182.24 14.6857 183.435 13.8638C184.63 13.042 185.998 12.631 187.54 12.631C188.952 12.631 190.179 12.9864 191.222 13.6972C192.286 14.4081 193.177 15.3077 193.894 16.3962V12.9309H196.435V30.1239C196.435 31.7677 196.044 33.1561 195.262 34.2889C194.502 35.4218 193.459 36.277 192.134 36.8546C190.831 37.4543 189.376 37.7542 187.768 37.7542C185.857 37.7542 184.293 37.4099 183.077 36.7213C181.86 36.0327 180.85 35.0997 180.047 33.9224L181.708 32.423C182.382 33.4448 183.25 34.2112 184.315 34.7221C185.401 35.233 186.552 35.4884 187.768 35.4884C188.811 35.4884 189.767 35.2885 190.635 34.8887C191.526 34.5111 192.232 33.9224 192.753 33.1227C193.296 32.3231 193.568 31.3235 193.568 30.1239V27.0585C192.938 28.1248 192.069 28.9689 190.961 29.5908C189.875 30.2128 188.724 30.5238 187.508 30.5238ZM188.387 28.1248C189.191 28.1248 189.962 27.9359 190.701 27.5583C191.439 27.1807 192.058 26.692 192.558 26.0922C193.079 25.4925 193.416 24.8705 193.568 24.2263V19.2283C193.112 18.051 192.373 17.0848 191.352 16.3295C190.331 15.5521 189.256 15.1633 188.127 15.1633C186.976 15.1633 185.976 15.4854 185.129 16.1296C184.304 16.7738 183.663 17.5957 183.207 18.5953C182.773 19.5949 182.555 20.6389 182.555 21.7273C182.555 22.8824 182.816 23.9487 183.337 24.926C183.859 25.8812 184.554 26.6587 185.423 27.2584C186.313 27.836 187.301 28.1248 188.387 28.1248Z" fill="#F1F1F1"/>
<path d="M199.726 25.2926C199.726 24.1819 200.03 23.2267 200.639 22.4271C201.269 21.6052 202.126 20.9721 203.213 20.5278C204.299 20.0836 205.558 19.8614 206.992 19.8614C207.752 19.8614 208.556 19.9281 209.403 20.0613C210.25 20.1724 210.999 20.3501 211.651 20.5945V19.3283C211.651 17.9955 211.26 16.9515 210.478 16.1962C209.696 15.4188 208.588 15.03 207.155 15.03C206.221 15.03 205.319 15.2077 204.451 15.5632C203.603 15.8964 202.702 16.385 201.746 17.0292L200.704 14.9634C201.812 14.1859 202.919 13.6084 204.027 13.2308C205.135 12.8309 206.286 12.631 207.481 12.631C209.653 12.631 211.369 13.253 212.628 14.4969C213.888 15.7187 214.518 17.4291 214.518 19.6282V26.9919C214.518 27.6805 214.822 28.0359 215.43 28.0581V30.3239C215.148 30.3683 214.898 30.4016 214.681 30.4238C214.486 30.446 214.323 30.4571 214.192 30.4571C213.519 30.4571 213.009 30.2683 212.661 29.8907C212.335 29.5131 212.151 29.1132 212.107 28.6912L212.042 27.5916C211.303 28.569 210.337 29.3243 209.142 29.8574C207.948 30.3905 206.764 30.6571 205.591 30.6571C204.461 30.6571 203.451 30.4238 202.561 29.9573C201.67 29.4687 200.975 28.8245 200.476 28.0248C199.976 27.2029 199.726 26.2922 199.726 25.2926ZM210.804 26.5254C211.065 26.2144 211.271 25.9034 211.423 25.5924C211.575 25.2592 211.651 24.9816 211.651 24.7594V22.5937C210.261 22.0383 208.827 21.7607 207.35 21.7607C205.895 21.7607 204.711 22.0605 203.799 22.6603C202.908 23.2378 202.463 24.0375 202.463 25.0593C202.463 25.6147 202.604 26.1589 202.887 26.692C203.191 27.2029 203.625 27.625 204.19 27.9582C204.776 28.2914 205.493 28.458 206.34 28.458C207.231 28.458 208.078 28.2802 208.882 27.9248C209.685 27.5472 210.326 27.0807 210.804 26.5254Z" fill="#F1F1F1"/>
<path d="M227.772 29.4576C227.425 29.613 226.871 29.8352 226.111 30.1239C225.372 30.4127 224.547 30.5571 223.634 30.5571C222.592 30.5571 221.69 30.2683 220.93 29.6908C220.17 29.091 219.79 28.1692 219.79 26.9252V15.23H217.477V12.9309H219.79V7.13323H222.657V12.9309H226.469V15.23H222.657V26.0256C222.7 26.6476 222.907 27.1141 223.276 27.425C223.645 27.7138 224.08 27.8582 224.579 27.8582C225.144 27.8582 225.665 27.7582 226.143 27.5583C226.621 27.3584 226.936 27.214 227.088 27.1252L227.772 29.4576Z" fill="#F1F1F1"/>
<path d="M237.733 30.6571C236.039 30.6571 234.54 30.2461 233.237 29.4242C231.934 28.6023 230.913 27.5028 230.174 26.1256C229.436 24.7483 229.067 23.2489 229.067 21.6274C229.067 19.9836 229.436 18.4842 230.174 17.1292C230.913 15.7742 231.934 14.6857 233.237 13.8638C234.562 13.042 236.071 12.631 237.766 12.631C239.482 12.631 240.969 13.0531 242.229 13.8972C243.511 14.7191 244.499 15.8075 245.194 17.1625C245.911 18.4953 246.269 19.9392 246.269 21.4941C246.269 21.9828 246.248 22.3604 246.204 22.627H232.097C232.183 23.7598 232.488 24.7706 233.009 25.6591C233.552 26.5254 234.247 27.214 235.094 27.7249C235.941 28.2136 236.853 28.458 237.831 28.458C238.873 28.458 239.851 28.1914 240.763 27.6583C241.697 27.1252 242.338 26.4254 242.685 25.5591L245.162 26.2588C244.619 27.5472 243.674 28.6023 242.327 29.4242C240.98 30.2461 239.449 30.6571 237.733 30.6571ZM231.999 20.5945H243.598C243.511 19.4616 243.196 18.462 242.653 17.5957C242.11 16.7294 241.415 16.0518 240.568 15.5632C239.721 15.0745 238.787 14.8301 237.766 14.8301C236.767 14.8301 235.843 15.0745 234.996 15.5632C234.149 16.0518 233.454 16.7294 232.911 17.5957C232.39 18.462 232.086 19.4616 231.999 20.5945Z" fill="#F1F1F1"/>
<path d="M58.6695 0H0V60H58.6695V0Z" fill="#ECB602"/>
<path d="M28.7859 10.4858H10.2425V29.5344H28.7859V10.4858Z" fill="#55185D"/>
<path d="M48.4042 10.4858H29.8608V29.5344H48.4042V10.4858Z" fill="#55185D"/>
<path d="M28.7859 30.4656H10.2425V49.5141H28.7859V30.4656Z" fill="#55185D"/>
<path d="M48.4042 30.4656H29.8608V49.5141H48.4042V30.4656Z" fill="#55185D"/>
</svg>
