<svg xmlns="http://www.w3.org/2000/svg" xmlns:xlink="http://www.w3.org/1999/xlink" width="1119" zoomAndPan="magnify" viewBox="0 0 839.25 176.249993" height="235" preserveAspectRatio="xMidYMid meet" version="1.0"><defs><g/><clipPath id="1c42ed1104"><path d="M 1.40625 51.035156 L 76.058594 51.035156 L 76.058594 125.6875 L 1.40625 125.6875 Z M 1.40625 51.035156 " clip-rule="nonzero"/></clipPath></defs><g clip-path="url(#1c42ed1104)"><path fill="#ecb602" d="M 76.042969 51.035156 L 1.40625 51.035156 L 1.40625 125.6875 L 76.042969 125.6875 Z M 76.042969 51.035156 " fill-opacity="1" fill-rule="nonzero"/></g><path fill="#55185d" d="M 38.027344 64.082031 L 14.433594 64.082031 L 14.433594 87.78125 L 38.027344 87.78125 Z M 38.027344 64.082031 " fill-opacity="1" fill-rule="nonzero"/><path fill="#55185d" d="M 62.984375 64.082031 L 39.394531 64.082031 L 39.394531 87.78125 L 62.984375 87.78125 Z M 62.984375 64.082031 " fill-opacity="1" fill-rule="nonzero"/><path fill="#55185d" d="M 38.027344 88.9375 L 14.433594 88.9375 L 14.433594 112.640625 L 38.027344 112.640625 Z M 38.027344 88.9375 " fill-opacity="1" fill-rule="nonzero"/><path fill="#55185d" d="M 62.984375 88.9375 L 39.394531 88.9375 L 39.394531 112.640625 L 62.984375 112.640625 Z M 62.984375 88.9375 " fill-opacity="1" fill-rule="nonzero"/><g fill="#ffffff" fill-opacity="1"><g transform="translate(89.527242, 121.889088)"><g><path d="M 64.6875 0 L 64.6875 -46.15625 L 46.65625 -11.78125 L 39.03125 -11.78125 L 21 -46.15625 L 21 0 L 7.328125 0 L 7.328125 -70.328125 L 21.984375 -70.328125 L 42.796875 -30.3125 L 63.796875 -70.328125 L 78.359375 -70.328125 L 78.359375 0 Z M 64.6875 0 "/></g></g></g><g fill="#ffffff" fill-opacity="1"><g transform="translate(180.660827, 121.889088)"><g><path d="M 37.140625 0.5 C 31.535156 0.5 26.765625 -0.441406 22.828125 -2.328125 C 18.898438 -4.210938 15.726562 -6.804688 13.3125 -10.109375 C 10.90625 -13.410156 9.140625 -17.15625 8.015625 -21.34375 C 6.898438 -25.539062 6.34375 -29.914062 6.34375 -34.46875 L 6.34375 -70.328125 L 20.015625 -70.328125 L 20.015625 -34.46875 C 20.015625 -31.5625 20.289062 -28.738281 20.84375 -26 C 21.40625 -23.257812 22.347656 -20.800781 23.671875 -18.625 C 24.992188 -16.445312 26.742188 -14.726562 28.921875 -13.46875 C 31.097656 -12.21875 33.804688 -11.59375 37.046875 -11.59375 C 40.347656 -11.59375 43.101562 -12.234375 45.3125 -13.515625 C 47.53125 -14.804688 49.28125 -16.539062 50.5625 -18.71875 C 51.851562 -20.894531 52.796875 -23.351562 53.390625 -26.09375 C 53.984375 -28.84375 54.28125 -31.632812 54.28125 -34.46875 L 54.28125 -70.328125 L 67.859375 -70.328125 L 67.859375 -34.46875 C 67.859375 -29.644531 67.28125 -25.117188 66.125 -20.890625 C 64.96875 -16.671875 63.148438 -12.957031 60.671875 -9.75 C 58.191406 -6.550781 55.003906 -4.039062 51.109375 -2.21875 C 47.210938 -0.40625 42.554688 0.5 37.140625 0.5 Z M 37.140625 0.5 "/></g></g></g><g fill="#ffffff" fill-opacity="1"><g transform="translate(260.402788, 121.889088)"><g><path d="M 49.234375 -51.90625 C 48.773438 -52.375 47.929688 -53.003906 46.703125 -53.796875 C 45.484375 -54.585938 44 -55.34375 42.25 -56.0625 C 40.5 -56.789062 38.597656 -57.4375 36.546875 -58 C 34.503906 -58.5625 32.425781 -58.84375 30.3125 -58.84375 C 26.613281 -58.84375 23.820312 -58.148438 21.9375 -56.765625 C 20.0625 -55.378906 19.125 -53.429688 19.125 -50.921875 C 19.125 -49.003906 19.71875 -47.484375 20.90625 -46.359375 C 22.09375 -45.234375 23.875 -44.273438 26.25 -43.484375 C 28.625 -42.691406 31.597656 -41.832031 35.171875 -40.90625 C 39.785156 -39.789062 43.796875 -38.421875 47.203125 -36.796875 C 50.609375 -35.179688 53.21875 -33.066406 55.03125 -30.453125 C 56.84375 -27.847656 57.75 -24.398438 57.75 -20.109375 C 57.75 -16.347656 57.054688 -13.128906 55.671875 -10.453125 C 54.285156 -7.773438 52.367188 -5.609375 49.921875 -3.953125 C 47.484375 -2.304688 44.710938 -1.101562 41.609375 -0.34375 C 38.503906 0.414062 35.203125 0.796875 31.703125 0.796875 C 28.203125 0.796875 24.703125 0.429688 21.203125 -0.296875 C 17.703125 -1.023438 14.332031 -2.066406 11.09375 -3.421875 C 7.851562 -4.773438 4.878906 -6.410156 2.171875 -8.328125 L 8.21875 -20.109375 C 8.8125 -19.515625 9.867188 -18.738281 11.390625 -17.78125 C 12.910156 -16.820312 14.757812 -15.863281 16.9375 -14.90625 C 19.113281 -13.945312 21.488281 -13.132812 24.0625 -12.46875 C 26.644531 -11.8125 29.253906 -11.484375 31.890625 -11.484375 C 35.597656 -11.484375 38.40625 -12.109375 40.3125 -13.359375 C 42.226562 -14.617188 43.1875 -16.40625 43.1875 -18.71875 C 43.1875 -20.832031 42.425781 -22.484375 40.90625 -23.671875 C 39.394531 -24.859375 37.285156 -25.898438 34.578125 -26.796875 C 31.867188 -27.691406 28.664062 -28.664062 24.96875 -29.71875 C 20.539062 -30.96875 16.835938 -32.367188 13.859375 -33.921875 C 10.890625 -35.472656 8.675781 -37.4375 7.21875 -39.8125 C 5.769531 -42.195312 5.046875 -45.171875 5.046875 -48.734375 C 5.046875 -53.554688 6.1875 -57.601562 8.46875 -60.875 C 10.75 -64.144531 13.835938 -66.617188 17.734375 -68.296875 C 21.628906 -69.984375 25.953125 -70.828125 30.703125 -70.828125 C 34.003906 -70.828125 37.125 -70.460938 40.0625 -69.734375 C 43.007812 -69.015625 45.769531 -68.054688 48.34375 -66.859375 C 50.914062 -65.671875 53.226562 -64.382812 55.28125 -63 Z M 49.234375 -51.90625 "/></g></g></g><g fill="#ffffff" fill-opacity="1"><g transform="translate(326.573829, 121.889088)"><g><path d="M 59.9375 -58.34375 L 37.453125 -58.34375 L 37.453125 0 L 23.875 0 L 23.875 -58.34375 L 1.390625 -58.34375 L 1.390625 -70.328125 L 59.9375 -70.328125 Z M 59.9375 -58.34375 "/></g></g></g><g fill="#ffffff" fill-opacity="1"><g transform="translate(393.339208, 121.889088)"><g><path d="M 56.171875 -11.984375 L 56.171875 0 L 7.328125 0 L 7.328125 -70.328125 L 55.28125 -70.328125 L 55.28125 -58.34375 L 21 -58.34375 L 21 -41.40625 L 50.625 -41.40625 L 50.625 -30.3125 L 21 -30.3125 L 21 -11.984375 Z M 56.171875 -11.984375 "/></g></g></g><g fill="#ffffff" fill-opacity="1"><g transform="translate(458.321551, 121.889088)"><g><path d="M 7.328125 0 L 7.328125 -70.328125 L 38.4375 -70.328125 C 41.675781 -70.328125 44.664062 -69.664062 47.40625 -68.34375 C 50.144531 -67.03125 52.519531 -65.25 54.53125 -63 C 56.550781 -60.757812 58.101562 -58.25 59.1875 -55.46875 C 60.28125 -52.695312 60.828125 -49.859375 60.828125 -46.953125 C 60.828125 -43.984375 60.3125 -41.128906 59.28125 -38.390625 C 58.257812 -35.648438 56.789062 -33.253906 54.875 -31.203125 C 52.957031 -29.160156 50.710938 -27.578125 48.140625 -26.453125 L 64.1875 0 L 49.140625 0 L 34.671875 -23.578125 L 21 -23.578125 L 21 0 Z M 21 -35.5625 L 38.140625 -35.5625 C 39.859375 -35.5625 41.375 -36.070312 42.6875 -37.09375 C 44.007812 -38.125 45.066406 -39.492188 45.859375 -41.203125 C 46.648438 -42.921875 47.046875 -44.835938 47.046875 -46.953125 C 47.046875 -49.203125 46.582031 -51.164062 45.65625 -52.84375 C 44.738281 -54.53125 43.566406 -55.867188 42.140625 -56.859375 C 40.722656 -57.847656 39.191406 -58.34375 37.546875 -58.34375 L 21 -58.34375 Z M 21 -35.5625 "/></g></g></g><g fill="#ffffff" fill-opacity="1"><g transform="translate(529.643592, 121.889088)"><g><path d="M 36.546875 0.5 C 31.992188 0.5 27.6875 -0.421875 23.625 -2.265625 C 19.5625 -4.117188 15.992188 -6.679688 12.921875 -9.953125 C 9.859375 -13.222656 7.46875 -17.035156 5.75 -21.390625 C 4.03125 -25.753906 3.171875 -30.476562 3.171875 -35.5625 C 3.171875 -40.382812 4.03125 -44.925781 5.75 -49.1875 C 7.46875 -53.445312 9.878906 -57.191406 12.984375 -60.421875 C 16.085938 -63.660156 19.71875 -66.203125 23.875 -68.046875 C 28.03125 -69.898438 32.554688 -70.828125 37.453125 -70.828125 C 44.054688 -70.828125 49.71875 -69.421875 54.4375 -66.609375 C 59.15625 -63.804688 62.703125 -60.09375 65.078125 -55.46875 L 54.875 -47.953125 C 53.09375 -51.453125 50.597656 -54.125 47.390625 -55.96875 C 44.191406 -57.820312 40.710938 -58.75 36.953125 -58.75 C 33.984375 -58.75 31.273438 -58.117188 28.828125 -56.859375 C 26.378906 -55.609375 24.265625 -53.890625 22.484375 -51.703125 C 20.703125 -49.523438 19.332031 -47.015625 18.375 -44.171875 C 17.414062 -41.335938 16.9375 -38.335938 16.9375 -35.171875 C 16.9375 -31.796875 17.445312 -28.6875 18.46875 -25.84375 C 19.5 -23.007812 20.953125 -20.535156 22.828125 -18.421875 C 24.710938 -16.304688 26.910156 -14.640625 29.421875 -13.421875 C 31.929688 -12.203125 34.707031 -11.59375 37.75 -11.59375 C 41.3125 -11.59375 44.726562 -12.515625 48 -14.359375 C 51.269531 -16.210938 54.320312 -18.921875 57.15625 -22.484375 L 57.15625 -9.015625 C 51.28125 -2.671875 44.410156 0.5 36.546875 0.5 Z M 56.171875 -26.15625 L 42 -26.15625 L 42 -36.15625 L 67.46875 -36.15625 L 67.46875 0 L 56.171875 0 Z M 56.171875 -26.15625 "/></g></g></g><g fill="#ffffff" fill-opacity="1"><g transform="translate(606.909096, 121.889088)"><g><path d="M 26.453125 -70.328125 L 40.3125 -70.328125 L 66.171875 0 L 52.109375 0 L 45.5625 -17.53125 L 21 -17.53125 L 14.5625 0 L 0.5 0 Z M 43.09375 -27.140625 L 33.390625 -56.171875 L 23.28125 -27.140625 Z M 43.09375 -27.140625 "/></g></g></g><g fill="#ffffff" fill-opacity="1"><g transform="translate(678.924528, 121.889088)"><g><path d="M 59.9375 -58.34375 L 37.453125 -58.34375 L 37.453125 0 L 23.875 0 L 23.875 -58.34375 L 1.390625 -58.34375 L 1.390625 -70.328125 L 59.9375 -70.328125 Z M 59.9375 -58.34375 "/></g></g></g><g fill="#ffffff" fill-opacity="1"><g transform="translate(745.689888, 121.889088)"><g><path d="M 56.171875 -11.984375 L 56.171875 0 L 7.328125 0 L 7.328125 -70.328125 L 55.28125 -70.328125 L 55.28125 -58.34375 L 21 -58.34375 L 21 -41.40625 L 50.625 -41.40625 L 50.625 -30.3125 L 21 -30.3125 L 21 -11.984375 Z M 56.171875 -11.984375 "/></g></g></g></svg>