<svg xmlns="http://www.w3.org/2000/svg" xmlns:xlink="http://www.w3.org/1999/xlink" width="412" zoomAndPan="magnify" viewBox="0 0 309 74.999997" height="100" preserveAspectRatio="xMidYMid meet" version="1.0"><defs><g/><clipPath id="7abed05d78"><path d="M 0 18.394531 L 26.25 18.394531 L 26.25 44.644531 L 0 44.644531 Z M 0 18.394531 " clip-rule="nonzero"/></clipPath></defs><g clip-path="url(#7abed05d78)"><path fill="#ecb602" d="M 26.246094 18.394531 L 0 18.394531 L 0 44.644531 L 26.246094 44.644531 Z M 26.246094 18.394531 " fill-opacity="1" fill-rule="nonzero"/></g><path fill="#55185d" d="M 12.878906 22.980469 L 4.582031 22.980469 L 4.582031 31.316406 L 12.878906 31.316406 Z M 12.878906 22.980469 " fill-opacity="1" fill-rule="nonzero"/><path fill="#55185d" d="M 21.652344 22.980469 L 13.359375 22.980469 L 13.359375 31.316406 L 21.652344 31.316406 Z M 21.652344 22.980469 " fill-opacity="1" fill-rule="nonzero"/><path fill="#55185d" d="M 12.878906 31.722656 L 4.582031 31.722656 L 4.582031 40.058594 L 12.878906 40.058594 Z M 12.878906 31.722656 " fill-opacity="1" fill-rule="nonzero"/><path fill="#55185d" d="M 21.652344 31.722656 L 13.359375 31.722656 L 13.359375 40.058594 L 21.652344 40.058594 Z M 21.652344 31.722656 " fill-opacity="1" fill-rule="nonzero"/><g fill="#ffffff" fill-opacity="1"><g transform="translate(34.42003, 44.068581)"><g><path d="M 23.75 0 L 23.75 -16.953125 L 17.125 -4.328125 L 14.328125 -4.328125 L 7.71875 -16.953125 L 7.71875 0 L 2.6875 0 L 2.6875 -25.828125 L 8.078125 -25.828125 L 15.71875 -11.125 L 23.421875 -25.828125 L 28.765625 -25.828125 L 28.765625 0 Z M 23.75 0 "/></g></g></g><g fill="#ffffff" fill-opacity="1"><g transform="translate(67.874516, 44.068581)"><g><path d="M 13.640625 0.1875 C 11.578125 0.1875 9.820312 -0.15625 8.375 -0.84375 C 6.9375 -1.539062 5.773438 -2.492188 4.890625 -3.703125 C 4.003906 -4.921875 3.351562 -6.300781 2.9375 -7.84375 C 2.53125 -9.382812 2.328125 -10.988281 2.328125 -12.65625 L 2.328125 -25.828125 L 7.34375 -25.828125 L 7.34375 -12.65625 C 7.34375 -11.59375 7.445312 -10.554688 7.65625 -9.546875 C 7.863281 -8.535156 8.207031 -7.628906 8.6875 -6.828125 C 9.175781 -6.035156 9.820312 -5.40625 10.625 -4.9375 C 11.425781 -4.476562 12.421875 -4.25 13.609375 -4.25 C 14.816406 -4.25 15.828125 -4.484375 16.640625 -4.953125 C 17.453125 -5.429688 18.09375 -6.070312 18.5625 -6.875 C 19.039062 -7.675781 19.390625 -8.578125 19.609375 -9.578125 C 19.828125 -10.585938 19.9375 -11.613281 19.9375 -12.65625 L 19.9375 -25.828125 L 24.921875 -25.828125 L 24.921875 -12.65625 C 24.921875 -10.882812 24.707031 -9.222656 24.28125 -7.671875 C 23.851562 -6.117188 23.1875 -4.753906 22.28125 -3.578125 C 21.375 -2.398438 20.203125 -1.476562 18.765625 -0.8125 C 17.335938 -0.144531 15.628906 0.1875 13.640625 0.1875 Z M 13.640625 0.1875 "/></g></g></g><g fill="#ffffff" fill-opacity="1"><g transform="translate(97.147238, 44.068581)"><g><path d="M 18.078125 -19.0625 C 17.910156 -19.226562 17.601562 -19.457031 17.15625 -19.75 C 16.707031 -20.039062 16.160156 -20.316406 15.515625 -20.578125 C 14.867188 -20.847656 14.171875 -21.085938 13.421875 -21.296875 C 12.671875 -21.503906 11.90625 -21.609375 11.125 -21.609375 C 9.769531 -21.609375 8.742188 -21.351562 8.046875 -20.84375 C 7.359375 -20.332031 7.015625 -19.617188 7.015625 -18.703125 C 7.015625 -17.992188 7.234375 -17.429688 7.671875 -17.015625 C 8.109375 -16.609375 8.765625 -16.257812 9.640625 -15.96875 C 10.515625 -15.675781 11.601562 -15.359375 12.90625 -15.015625 C 14.601562 -14.609375 16.078125 -14.109375 17.328125 -13.515625 C 18.578125 -12.921875 19.535156 -12.144531 20.203125 -11.1875 C 20.867188 -10.226562 21.203125 -8.960938 21.203125 -7.390625 C 21.203125 -6.003906 20.945312 -4.816406 20.4375 -3.828125 C 19.925781 -2.847656 19.222656 -2.054688 18.328125 -1.453125 C 17.429688 -0.847656 16.410156 -0.40625 15.265625 -0.125 C 14.128906 0.15625 12.921875 0.296875 11.640625 0.296875 C 10.359375 0.296875 9.070312 0.160156 7.78125 -0.109375 C 6.5 -0.378906 5.265625 -0.757812 4.078125 -1.25 C 2.890625 -1.75 1.796875 -2.351562 0.796875 -3.0625 L 3.015625 -7.390625 C 3.234375 -7.171875 3.617188 -6.882812 4.171875 -6.53125 C 4.734375 -6.175781 5.414062 -5.820312 6.21875 -5.46875 C 7.019531 -5.125 7.890625 -4.828125 8.828125 -4.578125 C 9.773438 -4.335938 10.738281 -4.21875 11.71875 -4.21875 C 13.070312 -4.21875 14.097656 -4.445312 14.796875 -4.90625 C 15.503906 -5.375 15.859375 -6.03125 15.859375 -6.875 C 15.859375 -7.644531 15.578125 -8.25 15.015625 -8.6875 C 14.460938 -9.125 13.6875 -9.503906 12.6875 -9.828125 C 11.695312 -10.160156 10.523438 -10.519531 9.171875 -10.90625 C 7.546875 -11.375 6.1875 -11.890625 5.09375 -12.453125 C 4 -13.023438 3.1875 -13.75 2.65625 -14.625 C 2.125 -15.5 1.859375 -16.585938 1.859375 -17.890625 C 1.859375 -19.660156 2.273438 -21.144531 3.109375 -22.34375 C 3.941406 -23.550781 5.070312 -24.460938 6.5 -25.078125 C 7.9375 -25.703125 9.53125 -26.015625 11.28125 -26.015625 C 12.488281 -26.015625 13.628906 -25.878906 14.703125 -25.609375 C 15.785156 -25.335938 16.800781 -24.984375 17.75 -24.546875 C 18.695312 -24.109375 19.546875 -23.640625 20.296875 -23.140625 Z M 18.078125 -19.0625 "/></g></g></g><g fill="#ffffff" fill-opacity="1"><g transform="translate(121.438185, 44.068581)"><g><path d="M 22 -21.421875 L 13.75 -21.421875 L 13.75 0 L 8.765625 0 L 8.765625 -21.421875 L 0.515625 -21.421875 L 0.515625 -25.828125 L 22 -25.828125 Z M 22 -21.421875 "/></g></g></g><g fill="#ffffff" fill-opacity="1"><g transform="translate(145.947319, 44.068581)"><g><path d="M 20.625 -4.40625 L 20.625 0 L 2.6875 0 L 2.6875 -25.828125 L 20.296875 -25.828125 L 20.296875 -21.421875 L 7.71875 -21.421875 L 7.71875 -15.203125 L 18.59375 -15.203125 L 18.59375 -11.125 L 7.71875 -11.125 L 7.71875 -4.40625 Z M 20.625 -4.40625 "/></g></g></g><g fill="#ffffff" fill-opacity="1"><g transform="translate(169.80192, 44.068581)"><g><path d="M 2.6875 0 L 2.6875 -25.828125 L 14.109375 -25.828125 C 15.296875 -25.828125 16.394531 -25.582031 17.40625 -25.09375 C 18.414062 -24.613281 19.289062 -23.957031 20.03125 -23.125 C 20.769531 -22.300781 21.335938 -21.378906 21.734375 -20.359375 C 22.128906 -19.347656 22.328125 -18.304688 22.328125 -17.234375 C 22.328125 -16.148438 22.140625 -15.101562 21.765625 -14.09375 C 21.390625 -13.082031 20.847656 -12.203125 20.140625 -11.453125 C 19.441406 -10.703125 18.617188 -10.125 17.671875 -9.71875 L 23.578125 0 L 18.046875 0 L 12.734375 -8.65625 L 7.71875 -8.65625 L 7.71875 0 Z M 7.71875 -13.0625 L 14 -13.0625 C 14.632812 -13.0625 15.191406 -13.25 15.671875 -13.625 C 16.160156 -14 16.550781 -14.5 16.84375 -15.125 C 17.132812 -15.757812 17.28125 -16.460938 17.28125 -17.234375 C 17.28125 -18.066406 17.109375 -18.789062 16.765625 -19.40625 C 16.429688 -20.019531 16.003906 -20.507812 15.484375 -20.875 C 14.960938 -21.238281 14.394531 -21.421875 13.78125 -21.421875 L 7.71875 -21.421875 Z M 7.71875 -13.0625 "/></g></g></g><g fill="#ffffff" fill-opacity="1"><g transform="translate(195.983768, 44.068581)"><g><path d="M 13.421875 0.1875 C 11.742188 0.1875 10.160156 -0.148438 8.671875 -0.828125 C 7.179688 -1.515625 5.875 -2.457031 4.75 -3.65625 C 3.625 -4.851562 2.742188 -6.25 2.109375 -7.84375 C 1.472656 -9.445312 1.15625 -11.1875 1.15625 -13.0625 C 1.15625 -14.832031 1.472656 -16.5 2.109375 -18.0625 C 2.742188 -19.625 3.628906 -21 4.765625 -22.1875 C 5.898438 -23.375 7.234375 -24.304688 8.765625 -24.984375 C 10.296875 -25.671875 11.957031 -26.015625 13.75 -26.015625 C 16.175781 -26.015625 18.253906 -25.5 19.984375 -24.46875 C 21.722656 -23.4375 23.023438 -22.070312 23.890625 -20.375 L 20.15625 -17.609375 C 19.5 -18.890625 18.582031 -19.867188 17.40625 -20.546875 C 16.226562 -21.234375 14.945312 -21.578125 13.5625 -21.578125 C 12.476562 -21.578125 11.484375 -21.34375 10.578125 -20.875 C 9.679688 -20.414062 8.90625 -19.785156 8.25 -18.984375 C 7.601562 -18.179688 7.101562 -17.257812 6.75 -16.21875 C 6.394531 -15.175781 6.21875 -14.070312 6.21875 -12.90625 C 6.21875 -11.675781 6.40625 -10.539062 6.78125 -9.5 C 7.15625 -8.457031 7.6875 -7.546875 8.375 -6.765625 C 9.070312 -5.992188 9.878906 -5.378906 10.796875 -4.921875 C 11.722656 -4.472656 12.742188 -4.25 13.859375 -4.25 C 15.171875 -4.25 16.425781 -4.585938 17.625 -5.265625 C 18.820312 -5.953125 19.941406 -6.945312 20.984375 -8.25 L 20.984375 -3.3125 C 18.828125 -0.976562 16.304688 0.1875 13.421875 0.1875 Z M 20.625 -9.609375 L 15.421875 -9.609375 L 15.421875 -13.28125 L 24.765625 -13.28125 L 24.765625 0 L 20.625 0 Z M 20.625 -9.609375 "/></g></g></g><g fill="#ffffff" fill-opacity="1"><g transform="translate(224.34741, 44.068581)"><g><path d="M 9.71875 -25.828125 L 14.796875 -25.828125 L 24.296875 0 L 19.140625 0 L 16.734375 -6.4375 L 7.71875 -6.4375 L 5.34375 0 L 0.1875 0 Z M 15.828125 -9.96875 L 12.265625 -20.625 L 8.546875 -9.96875 Z M 15.828125 -9.96875 "/></g></g></g><g fill="#ffffff" fill-opacity="1"><g transform="translate(250.783798, 44.068581)"><g><path d="M 22 -21.421875 L 13.75 -21.421875 L 13.75 0 L 8.765625 0 L 8.765625 -21.421875 L 0.515625 -21.421875 L 0.515625 -25.828125 L 22 -25.828125 Z M 22 -21.421875 "/></g></g></g><g fill="#ffffff" fill-opacity="1"><g transform="translate(275.292921, 44.068581)"><g><path d="M 20.625 -4.40625 L 20.625 0 L 2.6875 0 L 2.6875 -25.828125 L 20.296875 -25.828125 L 20.296875 -21.421875 L 7.71875 -21.421875 L 7.71875 -15.203125 L 18.59375 -15.203125 L 18.59375 -11.125 L 7.71875 -11.125 L 7.71875 -4.40625 Z M 20.625 -4.40625 "/></g></g></g><g fill="#ffffff" fill-opacity="1"><g transform="translate(104.297848, 67.023387)"><g><path d="M 10.78125 0 L 10.78125 -8.671875 L 6.921875 -1.9375 L 6.265625 -1.9375 L 2.390625 -8.671875 L 2.390625 0 L 1.34375 0 L 1.34375 -10.65625 L 2.421875 -10.65625 L 6.578125 -3.359375 L 10.765625 -10.65625 L 11.828125 -10.65625 L 11.828125 0 Z M 10.78125 0 "/></g></g></g><g fill="#ffffff" fill-opacity="1"><g transform="translate(117.568342, 67.023387)"><g><path d="M 1.34375 0 L 1.34375 -10.65625 L 2.390625 -10.65625 L 2.390625 0 Z M 1.34375 0 "/></g></g></g><g fill="#ffffff" fill-opacity="1"><g transform="translate(121.396419, 67.023387)"><g><path d="M 2.390625 -8.71875 L 2.390625 0 L 1.34375 0 L 1.34375 -10.65625 L 2.203125 -10.65625 L 9.203125 -1.765625 L 9.203125 -10.640625 L 10.25 -10.640625 L 10.25 0 L 9.28125 0 Z M 2.390625 -8.71875 "/></g></g></g><g fill="#ffffff" fill-opacity="1"><g transform="translate(133.090672, 67.023387)"><g><path d="M 1.34375 0 L 1.34375 -10.65625 L 4.953125 -10.65625 C 6.085938 -10.65625 7.03125 -10.414062 7.78125 -9.9375 C 8.539062 -9.46875 9.109375 -8.828125 9.484375 -8.015625 C 9.867188 -7.210938 10.0625 -6.320312 10.0625 -5.34375 C 10.0625 -4.257812 9.851562 -3.316406 9.4375 -2.515625 C 9.019531 -1.722656 8.425781 -1.101562 7.65625 -0.65625 C 6.894531 -0.21875 5.992188 0 4.953125 0 Z M 9.015625 -5.34375 C 9.015625 -6.195312 8.851562 -6.953125 8.53125 -7.609375 C 8.21875 -8.273438 7.757812 -8.796875 7.15625 -9.171875 C 6.5625 -9.546875 5.828125 -9.734375 4.953125 -9.734375 L 2.390625 -9.734375 L 2.390625 -0.9375 L 4.953125 -0.9375 C 5.835938 -0.9375 6.578125 -1.128906 7.171875 -1.515625 C 7.773438 -1.910156 8.234375 -2.4375 8.546875 -3.09375 C 8.859375 -3.757812 9.015625 -4.507812 9.015625 -5.34375 Z M 9.015625 -5.34375 "/></g></g></g><g fill="#ffffff" fill-opacity="1"><g transform="translate(143.92925, 67.023387)"><g><path d="M 7.5625 -8.65625 C 7.414062 -8.832031 7.238281 -8.988281 7.03125 -9.125 C 6.832031 -9.257812 6.609375 -9.375 6.359375 -9.46875 C 6.109375 -9.570312 5.84375 -9.65625 5.5625 -9.71875 C 5.28125 -9.78125 4.976562 -9.8125 4.65625 -9.8125 C 3.726562 -9.8125 3.046875 -9.628906 2.609375 -9.265625 C 2.171875 -8.910156 1.953125 -8.429688 1.953125 -7.828125 C 1.953125 -7.398438 2.050781 -7.066406 2.25 -6.828125 C 2.457031 -6.585938 2.78125 -6.390625 3.21875 -6.234375 C 3.664062 -6.085938 4.226562 -5.9375 4.90625 -5.78125 C 5.664062 -5.625 6.320312 -5.429688 6.875 -5.203125 C 7.425781 -4.984375 7.851562 -4.6875 8.15625 -4.3125 C 8.457031 -3.9375 8.609375 -3.429688 8.609375 -2.796875 C 8.609375 -2.304688 8.507812 -1.878906 8.3125 -1.515625 C 8.125 -1.148438 7.859375 -0.847656 7.515625 -0.609375 C 7.179688 -0.367188 6.773438 -0.191406 6.296875 -0.078125 C 5.828125 0.0351562 5.316406 0.09375 4.765625 0.09375 C 4.210938 0.09375 3.679688 0.0351562 3.171875 -0.078125 C 2.671875 -0.191406 2.191406 -0.363281 1.734375 -0.59375 C 1.285156 -0.820312 0.867188 -1.109375 0.484375 -1.453125 L 1 -2.3125 C 1.195312 -2.113281 1.425781 -1.925781 1.6875 -1.75 C 1.957031 -1.570312 2.253906 -1.410156 2.578125 -1.265625 C 2.898438 -1.128906 3.25 -1.023438 3.625 -0.953125 C 4 -0.878906 4.390625 -0.84375 4.796875 -0.84375 C 5.640625 -0.84375 6.300781 -0.992188 6.78125 -1.296875 C 7.257812 -1.609375 7.5 -2.070312 7.5 -2.6875 C 7.5 -3.125 7.375 -3.472656 7.125 -3.734375 C 6.882812 -4.003906 6.523438 -4.222656 6.046875 -4.390625 C 5.566406 -4.566406 4.976562 -4.734375 4.28125 -4.890625 C 3.539062 -5.066406 2.914062 -5.257812 2.40625 -5.46875 C 1.894531 -5.675781 1.507812 -5.953125 1.25 -6.296875 C 1 -6.640625 0.875 -7.097656 0.875 -7.671875 C 0.875 -8.328125 1.035156 -8.882812 1.359375 -9.34375 C 1.679688 -9.800781 2.128906 -10.144531 2.703125 -10.375 C 3.273438 -10.613281 3.929688 -10.734375 4.671875 -10.734375 C 5.140625 -10.734375 5.578125 -10.6875 5.984375 -10.59375 C 6.390625 -10.5 6.765625 -10.359375 7.109375 -10.171875 C 7.453125 -9.992188 7.773438 -9.769531 8.078125 -9.5 Z M 7.5625 -8.65625 "/></g></g></g><g fill="#ffffff" fill-opacity="1"><g transform="translate(153.146555, 67.023387)"><g/></g></g><g fill="#ffffff" fill-opacity="1"><g transform="translate(157.079712, 67.023387)"><g><path d="M 4.640625 -10.65625 L 5.53125 -10.65625 L 9.953125 0 L 8.84375 0 L 7.46875 -3.328125 L 2.671875 -3.328125 L 1.3125 0 L 0.1875 0 Z M 7.21875 -4.15625 L 5.078125 -9.4375 L 2.890625 -4.15625 Z M 7.21875 -4.15625 "/></g></g></g><g fill="#ffffff" fill-opacity="1"><g transform="translate(167.332833, 67.023387)"><g><path d="M 8.90625 -9.734375 L 5.109375 -9.734375 L 5.109375 0 L 4.046875 0 L 4.046875 -9.734375 L 0.25 -9.734375 L 0.25 -10.65625 L 8.90625 -10.65625 Z M 8.90625 -9.734375 "/></g></g></g><g fill="#ffffff" fill-opacity="1"><g transform="translate(176.595183, 67.023387)"><g/></g></g><g fill="#ffffff" fill-opacity="1"><g transform="translate(180.528339, 67.023387)"><g><path d="M 5.34375 -10.59375 L 6.34375 -10.59375 L 7.84375 -6.796875 L 9.359375 -10.59375 L 10.359375 -10.59375 L 8.5 -6.03125 L 10.546875 -1.21875 L 14.40625 -10.65625 L 15.546875 -10.65625 L 11.015625 0 L 10.09375 0 L 7.859375 -5.265625 L 5.59375 0 L 4.6875 0 L 0.1875 -10.65625 L 1.3125 -10.65625 L 5.1875 -1.21875 L 7.203125 -6.03125 Z M 5.34375 -10.59375 "/></g></g></g><g fill="#ffffff" fill-opacity="1"><g transform="translate(196.335828, 67.023387)"><g><path d="M 5.625 0.078125 C 4.875 0.078125 4.191406 -0.0703125 3.578125 -0.375 C 2.972656 -0.675781 2.445312 -1.082031 2 -1.59375 C 1.5625 -2.113281 1.222656 -2.695312 0.984375 -3.34375 C 0.742188 -3.988281 0.625 -4.648438 0.625 -5.328125 C 0.625 -6.035156 0.75 -6.710938 1 -7.359375 C 1.25 -8.003906 1.601562 -8.578125 2.0625 -9.078125 C 2.519531 -9.585938 3.050781 -9.988281 3.65625 -10.28125 C 4.269531 -10.582031 4.929688 -10.734375 5.640625 -10.734375 C 6.390625 -10.734375 7.070312 -10.578125 7.6875 -10.265625 C 8.300781 -9.960938 8.820312 -9.550781 9.25 -9.03125 C 9.6875 -8.507812 10.023438 -7.925781 10.265625 -7.28125 C 10.503906 -6.644531 10.625 -5.988281 10.625 -5.3125 C 10.625 -4.601562 10.5 -3.925781 10.25 -3.28125 C 10 -2.632812 9.648438 -2.054688 9.203125 -1.546875 C 8.753906 -1.046875 8.222656 -0.648438 7.609375 -0.359375 C 7.003906 -0.0664062 6.34375 0.078125 5.625 0.078125 Z M 1.6875 -5.328125 C 1.6875 -4.742188 1.78125 -4.1875 1.96875 -3.65625 C 2.15625 -3.125 2.421875 -2.648438 2.765625 -2.234375 C 3.117188 -1.816406 3.539062 -1.484375 4.03125 -1.234375 C 4.519531 -0.992188 5.050781 -0.875 5.625 -0.875 C 6.238281 -0.875 6.785156 -1 7.265625 -1.25 C 7.753906 -1.507812 8.171875 -1.847656 8.515625 -2.265625 C 8.867188 -2.691406 9.132812 -3.171875 9.3125 -3.703125 C 9.488281 -4.234375 9.578125 -4.773438 9.578125 -5.328125 C 9.578125 -5.910156 9.484375 -6.46875 9.296875 -7 C 9.109375 -7.53125 8.832031 -8.003906 8.46875 -8.421875 C 8.113281 -8.835938 7.695312 -9.164062 7.21875 -9.40625 C 6.738281 -9.65625 6.207031 -9.78125 5.625 -9.78125 C 5.03125 -9.78125 4.488281 -9.65625 4 -9.40625 C 3.507812 -9.15625 3.09375 -8.816406 2.75 -8.390625 C 2.40625 -7.960938 2.140625 -7.484375 1.953125 -6.953125 C 1.773438 -6.421875 1.6875 -5.878906 1.6875 -5.328125 Z M 1.6875 -5.328125 "/></g></g></g><g fill="#ffffff" fill-opacity="1"><g transform="translate(207.714825, 67.023387)"><g><path d="M 1.34375 0 L 1.34375 -10.65625 L 5.84375 -10.65625 C 6.300781 -10.65625 6.71875 -10.5625 7.09375 -10.375 C 7.476562 -10.1875 7.8125 -9.925781 8.09375 -9.59375 C 8.382812 -9.269531 8.609375 -8.910156 8.765625 -8.515625 C 8.921875 -8.117188 9 -7.71875 9 -7.3125 C 9 -6.800781 8.898438 -6.320312 8.703125 -5.875 C 8.503906 -5.425781 8.226562 -5.046875 7.875 -4.734375 C 7.519531 -4.421875 7.101562 -4.210938 6.625 -4.109375 L 9.234375 0 L 8.046875 0 L 5.546875 -3.9375 L 2.390625 -3.9375 L 2.390625 0 Z M 2.390625 -4.859375 L 5.875 -4.859375 C 6.289062 -4.859375 6.65625 -4.972656 6.96875 -5.203125 C 7.28125 -5.441406 7.519531 -5.75 7.6875 -6.125 C 7.851562 -6.5 7.9375 -6.894531 7.9375 -7.3125 C 7.9375 -7.738281 7.835938 -8.132812 7.640625 -8.5 C 7.453125 -8.863281 7.191406 -9.160156 6.859375 -9.390625 C 6.535156 -9.617188 6.175781 -9.734375 5.78125 -9.734375 L 2.390625 -9.734375 Z M 2.390625 -4.859375 "/></g></g></g><g fill="#ffffff" fill-opacity="1"><g transform="translate(217.622684, 67.023387)"><g><path d="M 1.34375 0 L 1.34375 -10.640625 L 2.390625 -10.640625 L 2.390625 -4.453125 L 8.265625 -10.65625 L 9.421875 -10.65625 L 5.0625 -5.96875 L 9.640625 0 L 8.453125 0 L 4.390625 -5.34375 L 2.390625 -3.265625 L 2.390625 0 Z M 1.34375 0 "/></g></g></g></svg>